<?xml version="1.0" encoding="UTF-8"?>
<!DOCTYPE svg PUBLIC "-//W3C//DTD SVG 1.1//EN" "http://www.w3.org/Graphics/SVG/1.1/DTD/svg11.dtd">
<svg xmlns="http://www.w3.org/2000/svg" version="1.1" width="506px" height="493px" style="shape-rendering:geometricPrecision; text-rendering:geometricPrecision; image-rendering:optimizeQuality; fill-rule:evenodd; clip-rule:evenodd" xmlns:xlink="http://www.w3.org/1999/xlink">
<g><path style="opacity:1" fill="#1f3952" d="M 233.5,-0.5 C 244.5,-0.5 255.5,-0.5 266.5,-0.5C 256.008,0.330376 245.341,0.830376 234.5,1C 233.167,1.66667 233.167,2.33333 234.5,3C 245.5,3.33333 256.5,3.66667 267.5,4C 269.708,4.19088 271.708,4.69088 273.5,5.5C 255.459,3.98529 237.459,4.31863 219.5,6.5C 222.416,5.27349 225.416,4.10682 228.5,3C 224.312,2.82382 220.312,2.32382 216.5,1.5C 222.36,1.28318 228.027,0.616509 233.5,-0.5 Z"/></g>
<g><path style="opacity:1" fill="#112c48" d="M 266.5,-0.5 C 267.5,-0.5 268.5,-0.5 269.5,-0.5C 368.838,9.71221 440.671,59.3789 485,148.5C 495.589,173.65 502.422,199.65 505.5,226.5C 505.5,239.833 505.5,253.167 505.5,266.5C 494.363,352.643 451.363,417.477 376.5,461C 345.906,477.254 313.573,487.754 279.5,492.5C 261.5,492.5 243.5,492.5 225.5,492.5C 149.79,481.905 88.9565,446.239 43,385.5C 19.5232,350.9 5.02318,312.9 -0.5,271.5C -0.5,253.833 -0.5,236.167 -0.5,218.5C 15.1979,124.942 66.1979,58.4423 152.5,19C 173.192,10.8249 194.526,4.99153 216.5,1.5C 220.312,2.32382 224.312,2.82382 228.5,3C 225.416,4.10682 222.416,5.27349 219.5,6.5C 163.168,13.801 115.168,37.4677 75.5,77.5C 45.3995,106.014 24.7328,140.347 13.5,180.5C 12.0762,182.515 11.4095,184.848 11.5,187.5C 5.07753,212.565 3.07753,237.899 5.5,263.5C 11.6755,335.694 43.3422,393.86 100.5,438C 133.234,462.508 169.901,478.008 210.5,484.5C 215.269,485.889 220.269,486.556 225.5,486.5C 292.252,492.445 352.585,475.612 406.5,436C 459.481,393.803 490.148,338.97 498.5,271.5C 500.547,258.199 500.88,244.866 499.5,231.5C 499.5,229.5 499.5,227.5 499.5,225.5C 499.638,220.586 498.972,215.919 497.5,211.5C 496.979,204.079 495.813,196.746 494,189.5C 493.76,187.148 492.927,185.148 491.5,183.5C 485.131,158.103 474.465,134.77 459.5,113.5C 414.243,49.188 352.243,13.188 273.5,5.5C 271.708,4.69088 269.708,4.19088 267.5,4C 256.5,3.66667 245.5,3.33333 234.5,3C 233.167,2.33333 233.167,1.66667 234.5,1C 245.341,0.830376 256.008,0.330376 266.5,-0.5 Z"/></g>
<g><path style="opacity:1" fill="#0c2a49" d="M 71.5,126.5 C 68.5932,120.553 65.5932,114.553 62.5,108.5C 64.69,106.144 66.69,103.644 68.5,101C 77.6626,103.165 86.6626,106.165 95.5,110C 96.9437,110.781 98.277,110.614 99.5,109.5C 93.9488,102.225 88.2821,95.058 82.5,88C 83.5442,86.8261 84.5442,85.6594 85.5,84.5C 90.1211,80.5173 95.1211,77.0173 100.5,74C 109.665,73.332 113.332,77.4986 111.5,86.5C 116.753,88.1277 121.753,90.2944 126.5,93C 123.588,95.9471 120.255,98.1137 116.5,99.5C 112.426,98.8643 108.593,97.531 105,95.5C 104.5,95.8333 104,96.1667 103.5,96.5C 106.485,99.512 108.651,102.845 110,106.5C 104.242,110.254 99.0752,114.754 94.5,120C 92.5568,119.695 90.5568,119.695 88.5,120C 87,121.5 85.5,123 84,124.5C 83.376,126.464 83.876,128.131 85.5,129.5C 84.07,132.433 82.07,134.933 79.5,137C 78.6683,137.688 78.0016,137.521 77.5,136.5C 75.4741,133.103 73.4741,129.77 71.5,126.5 Z"/></g>
<g><path style="opacity:1" fill="#fafbfb" d="M 273.5,5.5 C 352.243,13.188 414.243,49.188 459.5,113.5C 459.227,115.451 459.893,116.951 461.5,118C 460.151,118.772 459.318,119.939 459,121.5C 458.405,117.918 457.071,117.584 455,120.5C 453.613,116.279 450.779,113.612 446.5,112.5C 436.92,117.45 428.253,123.617 420.5,131C 424.228,137.464 428.894,143.131 434.5,148C 437.817,148.498 441.15,148.665 444.5,148.5C 445.552,148.351 446.552,148.517 447.5,149C 446.748,149.671 446.414,150.504 446.5,151.5C 443.489,152.669 440.822,154.336 438.5,156.5C 439.913,159.661 441.58,162.661 443.5,165.5C 446.833,163.833 450.167,162.167 453.5,160.5C 453.833,161 454.167,161.5 454.5,162C 451.833,166 449.167,170 446.5,174C 451.933,185.31 455.933,197.143 458.5,209.5C 458.833,210.167 459.167,210.833 459.5,211.5C 459.187,215.042 459.521,218.375 460.5,221.5C 462.167,221.5 463.833,221.5 465.5,221.5C 468.187,221.336 470.854,221.503 473.5,222C 469.667,225.167 465.833,228.333 462,231.5C 461.341,234.888 461.508,238.221 462.5,241.5C 467.566,242.716 472.566,242.383 477.5,240.5C 483.152,239.968 488.819,239.635 494.5,239.5C 494.813,235.958 494.479,232.625 493.5,229.5C 489.833,228.833 486.167,228.167 482.5,227.5C 485.239,224.616 488.239,221.949 491.5,219.5C 492.806,216.02 492.806,212.687 491.5,209.5C 489.369,208.686 487.036,208.186 484.5,208C 486.177,206.377 488.511,204.71 491.5,203C 490.22,200.868 490.22,198.702 491.5,196.5C 488.942,194.88 488.942,193.38 491.5,192C 490.606,189.932 489.94,187.765 489.5,185.5C 489.747,184.287 490.414,183.62 491.5,183.5C 492.927,185.148 493.76,187.148 494,189.5C 495.813,196.746 496.979,204.079 497.5,211.5C 497.362,216.414 498.028,221.081 499.5,225.5C 499.5,227.5 499.5,229.5 499.5,231.5C 499.389,244.84 499.055,258.173 498.5,271.5C 490.148,338.97 459.481,393.803 406.5,436C 352.585,475.612 292.252,492.445 225.5,486.5C 220.731,485.111 215.731,484.444 210.5,484.5C 169.901,478.008 133.234,462.508 100.5,438C 43.3422,393.86 11.6755,335.694 5.5,263.5C 5.28039,248.808 5.78039,234.141 7,219.5C 8.15623,218.007 8.98957,218.174 9.5,220C 9.3552,220.772 9.02186,221.439 8.5,222C 9.70418,223.353 10.3708,225.019 10.5,227C 9.49932,231.337 9.49932,235.504 10.5,239.5C 21.0803,240.672 31.747,241.338 42.5,241.5C 43.4816,238.038 43.815,234.371 43.5,230.5C 41.1667,230.5 38.8333,230.5 36.5,230.5C 35.1667,230.5 33.8333,230.5 32.5,230.5C 32.9672,225.6 32.3006,220.933 30.5,216.5C 31.6052,214.7 30.9386,213.533 28.5,213C 29,212.5 29.5,212 30,211.5C 32.8003,212.128 35.467,213.128 38,214.5C 40.6073,213.877 43.1073,213.21 45.5,212.5C 45.9595,209.123 46.6261,205.789 47.5,202.5C 43.3506,202.222 39.684,200.889 36.5,198.5C 41.1875,197.043 45.8541,195.376 50.5,193.5C 54.3344,181.498 59.001,169.832 64.5,158.5C 65.9002,157.9 66.9002,156.9 67.5,155.5C 68.6239,153.208 69.9573,151.042 71.5,149C 69.0848,146.282 66.4181,143.782 63.5,141.5C 64.8599,138.78 66.1932,136.114 67.5,133.5C 68.4682,131.393 68.8016,129.059 68.5,126.5C 69.5,126.5 70.5,126.5 71.5,126.5C 73.4741,129.77 75.4741,133.103 77.5,136.5C 78.0016,137.521 78.6683,137.688 79.5,137C 82.07,134.933 84.07,132.433 85.5,129.5C 83.876,128.131 83.376,126.464 84,124.5C 85.5,123 87,121.5 88.5,120C 90.5568,119.695 92.5568,119.695 94.5,120C 99.0752,114.754 104.242,110.254 110,106.5C 108.651,102.845 106.485,99.512 103.5,96.5C 104,96.1667 104.5,95.8333 105,95.5C 108.593,97.531 112.426,98.8643 116.5,99.5C 120.255,98.1137 123.588,95.9471 126.5,93C 121.753,90.2944 116.753,88.1277 111.5,86.5C 113.332,77.4986 109.665,73.332 100.5,74C 95.1211,77.0173 90.1211,80.5173 85.5,84.5C 83.8627,84.7051 82.196,84.2051 80.5,83C 81.1667,82.3333 81.8333,81.6667 82.5,81C 81.0625,79.7592 79.5625,79.2592 78,79.5C 77.5,80.6667 76.6667,81.5 75.5,82C 76.6405,82.7412 76.6405,83.5745 75.5,84.5C 74.277,85.6139 72.9437,85.7805 71.5,85C 72.2529,83.513 73.0862,83.3463 74,84.5C 74.4922,83.451 74.3256,82.451 73.5,81.5C 74.6302,80.3777 75.2969,79.0443 75.5,77.5C 115.168,37.4677 163.168,13.801 219.5,6.5C 237.459,4.31863 255.459,3.98529 273.5,5.5 Z"/></g>
<g><path style="opacity:1" fill="#fdfefe" d="M 403.5,242.5 C 403.196,241.85 402.863,241.183 402.5,240.5C 398.05,239.715 393.716,238.549 389.5,237C 390.34,235.334 389.84,235.167 388,236.5C 387.692,235.692 387.192,235.025 386.5,234.5C 386.167,235.167 385.833,235.833 385.5,236.5C 382.964,236.156 380.797,235.156 379,233.5C 376.281,234.444 373.448,234.777 370.5,234.5C 357.436,231.646 344.77,227.479 332.5,222C 328.438,213.209 324.105,204.543 319.5,196C 304.482,192.438 289.648,188.271 275,183.5C 265.839,193.138 256.673,202.805 247.5,212.5C 242.848,212.002 238.181,211.669 233.5,211.5C 225.159,210.774 216.826,210.274 208.5,210C 201.989,214.423 195.655,219.089 189.5,224C 181.528,223.338 173.528,223.005 165.5,223C 158.833,231 152.167,239 145.5,247C 128.84,246.945 112.174,246.778 95.5,246.5C 92.3752,245.521 89.0419,245.187 85.5,245.5C 85.5,242.167 85.5,238.833 85.5,235.5C 92.9875,170.692 125.987,123.859 184.5,95C 191.484,92.1757 198.484,89.509 205.5,87C 207.134,86.5065 208.801,86.3398 210.5,86.5C 218.074,86.4943 225.074,84.8277 231.5,81.5C 294.43,74.8547 346.596,95.188 388,142.5C 414.887,175.33 427.054,212.997 424.5,255.5C 417.195,251.502 410.195,247.168 403.5,242.5 Z"/></g>
<g><path style="opacity:1" fill="#2d3e60" d="M 411.5,327.5 C 413.075,322.602 414.075,317.602 414.5,312.5C 415.675,312.719 416.675,312.386 417.5,311.5C 421.053,304.303 421.386,296.97 418.5,289.5C 419.718,289.891 420.552,289.224 421,287.5C 423.553,278.543 423.886,269.543 422,260.5C 421,257.833 420,257.833 419,260.5C 418.667,260.167 418.333,259.833 418,259.5C 417.667,260.833 417.333,262.167 417,263.5C 416.064,260.208 416.564,257.208 418.5,254.5C 414.968,250.324 410.968,249.657 406.5,252.5C 405.614,251.675 405.281,250.675 405.5,249.5C 410.532,249.668 410.699,248.668 406,246.5C 405.667,246.833 405.333,247.167 405,247.5C 404.167,246.5 403.333,245.5 402.5,244.5C 399.144,243.49 396.144,242.157 393.5,240.5C 396.865,241.04 400.198,241.706 403.5,242.5C 410.195,247.168 417.195,251.502 424.5,255.5C 427.054,212.997 414.887,175.33 388,142.5C 346.596,95.188 294.43,74.8547 231.5,81.5C 226.54,82.4889 221.54,83.3222 216.5,84C 214.148,84.2401 212.148,85.0735 210.5,86.5C 208.801,86.3398 207.134,86.5065 205.5,87C 198.484,89.509 191.484,92.1757 184.5,95C 125.987,123.859 92.9875,170.692 85.5,235.5C 84.5233,238.287 84.19,241.287 84.5,244.5C 83.5,244.5 82.5,244.5 81.5,244.5C 81.5,239.5 81.5,234.5 81.5,229.5C 92.2188,161.577 129.219,114.077 192.5,87C 245.981,68.415 297.314,73.0817 346.5,101C 404.826,138.813 432.66,192.647 430,262.5C 428.492,285.649 422.325,307.315 411.5,327.5 Z"/></g>
<g><path style="opacity:1" fill="#0c2a49" d="M 117.5,61.5 C 119.39,61.2965 120.89,61.9632 122,63.5C 127.031,71.0333 131.864,78.7 136.5,86.5C 134.23,88.9748 131.563,90.9748 128.5,92.5C 122.143,84.132 116.143,75.4654 110.5,66.5C 112.724,64.566 115.058,62.8994 117.5,61.5 Z"/></g>
<g><path style="opacity:1" fill="#0d2b49" d="M 376.5,56.5 C 380.425,57.2579 383.758,59.0912 386.5,62C 385.015,64.1561 383.515,66.3228 382,68.5C 381.251,69.635 381.417,70.635 382.5,71.5C 384.429,72.3802 386.263,73.3802 388,74.5C 389.983,71.6836 392.15,69.0169 394.5,66.5C 397.663,68.1729 400.329,70.3395 402.5,73C 397.198,81.7781 391.532,90.2781 385.5,98.5C 382.398,96.963 379.732,94.963 377.5,92.5C 378.73,89.7087 380.23,87.0421 382,84.5C 382.749,83.365 382.583,82.365 381.5,81.5C 379.668,80.7515 378.001,79.7515 376.5,78.5C 374.002,81.4922 371.502,84.4922 369,87.5C 365.557,86.5334 362.724,84.7001 360.5,82C 365.647,73.3596 370.98,64.8596 376.5,56.5 Z"/></g>
<g><path style="opacity:1" fill="#0e2b48" d="M 192.5,41.5 C 190.145,42.0944 187.978,43.0944 186,44.5C 179.108,40.7369 175.775,42.7369 176,50.5C 177.904,58.4108 182.404,60.4108 189.5,56.5C 189.5,55.5 189.5,54.5 189.5,53.5C 187.194,53.9926 184.861,54.3259 182.5,54.5C 181.637,52.1046 181.637,49.7713 182.5,47.5C 186.138,46.6724 189.471,45.339 192.5,43.5C 194.144,43.2865 195.644,43.6198 197,44.5C 198.962,49.0055 199.629,53.6722 199,58.5C 192.459,64.9026 184.626,67.7359 175.5,67C 165.428,60.7842 162.595,52.2842 167,41.5C 175.278,32.4215 184.278,31.4215 194,38.5C 194.239,39.788 193.739,40.788 192.5,41.5 Z"/></g>
<g><path style="opacity:1" fill="#0f2b48" d="M 344.5,44.5 C 353.799,43.2396 361.299,46.2396 367,53.5C 367.497,56.146 367.664,58.8127 367.5,61.5C 364.119,61.5405 360.786,61.2071 357.5,60.5C 356.029,52.5898 352.529,51.5898 347,57.5C 344.841,61.1916 345.007,64.6916 347.5,68C 351.142,68.269 354.475,67.6023 357.5,66C 359.351,67.6837 361.018,69.5171 362.5,71.5C 358.532,76.9903 353.199,78.8236 346.5,77C 333.505,70.8001 331.005,61.6334 339,49.5C 341.191,48.1666 343.024,46.5 344.5,44.5 Z"/></g>
<g><path style="opacity:1" fill="#0b2a49" d="M 151.5,43.5 C 154.292,43.4521 156.125,44.7854 157,47.5C 160.044,54.5905 163.378,61.5905 167,68.5C 167.49,69.7932 167.657,71.1266 167.5,72.5C 164.611,72.9462 161.944,73.9462 159.5,75.5C 154.179,72.6693 148.846,70.1693 143.5,68C 146.015,71.3623 148.015,75.029 149.5,79C 147.037,81.07 144.371,82.9033 141.5,84.5C 135.993,75.4878 130.993,66.1545 126.5,56.5C 129.013,54.4935 131.846,53.1602 135,52.5C 140.257,54.6294 145.257,57.2961 150,60.5C 150.667,59.5 150.667,58.5 150,57.5C 148.364,54.3939 146.864,51.2272 145.5,48C 147.358,46.2453 149.358,44.7453 151.5,43.5 Z"/></g>
<g><path style="opacity:1" fill="#dfe7ed" d="M 192.5,41.5 C 192.5,42.1667 192.5,42.8333 192.5,43.5C 189.471,45.339 186.138,46.6724 182.5,47.5C 181.637,49.7713 181.637,52.1046 182.5,54.5C 184.861,54.3259 187.194,53.9926 189.5,53.5C 189.5,54.5 189.5,55.5 189.5,56.5C 182.404,60.4108 177.904,58.4108 176,50.5C 175.775,42.7369 179.108,40.7369 186,44.5C 187.978,43.0944 190.145,42.0944 192.5,41.5 Z"/></g>
<g><path style="opacity:1" fill="#0d2a48" d="M 293.5,27.5 C 301.202,29.1181 308.869,30.9514 316.5,33C 320.035,35.7071 321.202,39.2071 320,43.5C 318.328,46.3371 316.161,48.6704 313.5,50.5C 316.078,54.8141 317.412,59.4808 317.5,64.5C 313.443,64.1522 309.443,63.4855 305.5,62.5C 304.983,58.7783 304.15,55.1117 303,51.5C 302.632,50.09 301.799,49.09 300.5,48.5C 299.538,52.679 298.204,56.679 296.5,60.5C 293.63,59.878 290.796,59.2113 288,58.5C 288.535,47.9577 290.368,37.6244 293.5,27.5 Z"/></g>
<g><path style="opacity:1" fill="#d2e1e9" d="M 302.5,37.5 C 305.463,37.1507 307.796,38.1507 309.5,40.5C 309.291,41.086 308.957,41.586 308.5,42C 306.527,42.4955 304.527,42.6621 302.5,42.5C 302.5,40.8333 302.5,39.1667 302.5,37.5 Z"/></g>
<g><path style="opacity:1" fill="#0c2a4a" d="M 273.5,33.5 C 274.468,31.3926 274.802,29.0593 274.5,26.5C 277.833,26.5 281.167,26.5 284.5,26.5C 284.5,29.1667 284.5,31.8333 284.5,34.5C 286.19,54.4871 277.523,61.3204 258.5,55C 256.622,53.4571 255.122,51.6238 254,49.5C 253.5,41.1733 253.334,32.84 253.5,24.5C 257.5,24.5 261.5,24.5 265.5,24.5C 264.889,31.8315 264.722,39.1649 265,46.5C 267.459,49.1003 269.959,49.1003 272.5,46.5C 273.439,42.2351 273.772,37.9017 273.5,33.5 Z"/></g>
<g><path style="opacity:1" fill="#0c2a49" d="M 226.5,25.5 C 230.898,25.2941 235.232,25.6274 239.5,26.5C 243.754,27.5852 246.587,30.2518 248,34.5C 251.322,48.8661 245.655,56.5328 231,57.5C 222.744,57.5779 217.744,53.5779 216,45.5C 213.485,35.5246 216.985,28.8579 226.5,25.5 Z"/></g>
<g><path style="opacity:1" fill="#edf3f4" d="M 230.5,33.5 C 233.325,33.0807 235.491,34.0807 237,36.5C 237.667,39.8333 237.667,43.1667 237,46.5C 233.381,49.3428 230.048,49.0095 227,45.5C 226.333,42.5 226.333,39.5 227,36.5C 228.145,35.3636 229.312,34.3636 230.5,33.5 Z"/></g>
<g><path style="opacity:1" fill="#6e8091" d="M 284.5,34.5 C 284.5,31.8333 284.5,29.1667 284.5,26.5C 281.167,26.5 277.833,26.5 274.5,26.5C 274.802,29.0593 274.468,31.3926 273.5,33.5C 273.5,30.8333 273.5,28.1667 273.5,25.5C 277.5,25.5 281.5,25.5 285.5,25.5C 285.81,28.7131 285.477,31.7131 284.5,34.5 Z"/></g>
<g><path style="opacity:1" fill="#8393a1" d="M 226.5,25.5 C 230.311,24.3547 234.311,24.1881 238.5,25C 239.056,25.3826 239.389,25.8826 239.5,26.5C 235.232,25.6274 230.898,25.2941 226.5,25.5 Z"/></g>
<g><path style="opacity:1" fill="#ced9e3" d="M 231.5,81.5 C 225.074,84.8277 218.074,86.4943 210.5,86.5C 212.148,85.0735 214.148,84.2401 216.5,84C 221.54,83.3222 226.54,82.4889 231.5,81.5 Z"/></g>
<g><path style="opacity:1" fill="#d9eaf0" d="M 99.5,83.5 C 101.252,83.4176 102.252,84.2509 102.5,86C 101.831,87.8475 100.497,89.0142 98.5,89.5C 95.8482,87.0987 96.1815,85.0987 99.5,83.5 Z"/></g>
<g><path style="opacity:1" fill="#0c2a49" d="M 408.5,77.5 C 412.021,79.1019 415.021,81.4352 417.5,84.5C 411.523,92.2782 405.19,99.7782 398.5,107C 395.302,106.533 392.469,105.033 390,102.5C 389.333,101.5 389.333,100.5 390,99.5C 396.754,92.5866 402.92,85.2532 408.5,77.5 Z"/></g>
<g><path style="opacity:1" fill="#09294a" d="M 416.5,110.5 C 415.697,111.423 415.53,112.423 416,113.5C 419.217,116.38 422.05,119.547 424.5,123C 423.333,125.5 421.5,127.333 419,128.5C 413.043,123.545 407.377,118.212 402,112.5C 401.253,110.072 402.086,108.406 404.5,107.5C 409.052,105.287 413.052,102.287 416.5,98.5C 417.736,97.7542 419.07,97.4208 420.5,97.5C 421.191,92.3216 423.691,91.3216 428,94.5C 428.483,95.448 428.649,96.448 428.5,97.5C 424.933,99.8772 421.433,102.544 418,105.5C 416.991,107.025 416.491,108.692 416.5,110.5 Z"/></g>
<g><path style="opacity:1" fill="#193048" d="M 416.5,110.5 C 416.491,108.692 416.991,107.025 418,105.5C 421.433,102.544 424.933,99.8772 428.5,97.5C 428.649,96.448 428.483,95.448 428,94.5C 423.691,91.3216 421.191,92.3216 420.5,97.5C 419.07,97.4208 417.736,97.7542 416.5,98.5C 413.052,102.287 409.052,105.287 404.5,107.5C 410.815,101.353 417.315,95.3533 424,89.5C 426.794,91.487 429.294,93.8203 431.5,96.5C 427.108,101.894 422.108,106.561 416.5,110.5 Z"/></g>
<g><path style="opacity:1" fill="#cde2ea" d="M 75.5,112.5 C 78.3721,112.635 79.8721,113.969 80,116.5C 79.586,116.957 79.086,117.291 78.5,117.5C 77.0476,116.06 76.0476,114.394 75.5,112.5 Z"/></g>
<g><path style="opacity:1" fill="#0b2949" d="M 446.5,112.5 C 449.835,116.675 453.002,121.008 456,125.5C 457.932,130.139 457.932,134.806 456,139.5C 452.839,143.509 449.006,146.509 444.5,148.5C 441.15,148.665 437.817,148.498 434.5,148C 428.894,143.131 424.228,137.464 420.5,131C 428.253,123.617 436.92,117.45 446.5,112.5 Z"/></g>
<g><path style="opacity:1" fill="#e8eff2" d="M 443.5,126.5 C 444.822,126.33 445.989,126.663 447,127.5C 448.221,132.97 446.054,136.47 440.5,138C 437.208,138.896 434.875,137.729 433.5,134.5C 436.903,131.814 440.236,129.147 443.5,126.5 Z"/></g>
<g><path style="opacity:1" fill="#0b2a49" d="M 67.5,133.5 C 66.1932,136.114 64.8599,138.78 63.5,141.5C 66.4181,143.782 69.0848,146.282 71.5,149C 69.9573,151.042 68.6239,153.208 67.5,155.5C 65.8058,156.686 64.1392,156.519 62.5,155C 54.8333,149.833 47.1667,144.667 39.5,139.5C 43.2064,132.624 47.8731,126.458 53.5,121C 62.7479,120.083 67.4145,124.249 67.5,133.5 Z"/></g>
<g><path style="opacity:1" fill="#dfe9ef" d="M 54.5,131.5 C 58.1612,131.35 59.1612,132.85 57.5,136C 52.8085,136.508 51.8085,135.008 54.5,131.5 Z"/></g>
<g><path style="opacity:1" fill="#eef3f5" d="M 446.5,112.5 C 450.779,113.612 453.613,116.279 455,120.5C 457.071,117.584 458.405,117.918 459,121.5C 459.318,119.939 460.151,118.772 461.5,118C 459.893,116.951 459.227,115.451 459.5,113.5C 474.465,134.77 485.131,158.103 491.5,183.5C 490.414,183.62 489.747,184.287 489.5,185.5C 489.94,187.765 490.606,189.932 491.5,192C 488.942,193.38 488.942,194.88 491.5,196.5C 490.22,198.702 490.22,200.868 491.5,203C 488.511,204.71 486.177,206.377 484.5,208C 487.036,208.186 489.369,208.686 491.5,209.5C 480.799,209.671 470.132,210.338 459.5,211.5C 459.167,210.833 458.833,210.167 458.5,209.5C 461.127,208.908 463.794,208.575 466.5,208.5C 466.007,203.701 465.007,199.035 463.5,194.5C 464.211,192.158 465.544,191.825 467.5,193.5C 468.964,197.019 469.964,200.686 470.5,204.5C 472.806,204.007 475.139,203.674 477.5,203.5C 477.404,198.312 476.404,193.312 474.5,188.5C 475.833,188.5 477.167,188.5 478.5,188.5C 478.71,193.009 479.71,197.342 481.5,201.5C 483.718,202.057 486.051,202.057 488.5,201.5C 489.746,198.707 489.413,196.04 487.5,193.5C 485.936,187.641 484.269,181.808 482.5,176C 477.942,176.466 473.609,177.632 469.5,179.5C 464.406,180.419 459.406,181.753 454.5,183.5C 454.167,183.167 453.833,182.833 453.5,182.5C 456.167,178.833 458.833,175.167 461.5,171.5C 467.515,174.755 472.348,173.421 476,167.5C 475.509,158.2 472.343,149.867 466.5,142.5C 459.812,145.512 453.145,148.512 446.5,151.5C 446.414,150.504 446.748,149.671 447.5,149C 446.552,148.517 445.552,148.351 444.5,148.5C 449.006,146.509 452.839,143.509 456,139.5C 457.932,134.806 457.932,130.139 456,125.5C 453.002,121.008 449.835,116.675 446.5,112.5 Z"/></g>
<g><path style="opacity:1" fill="#f1f5f6" d="M 75.5,77.5 C 75.2969,79.0443 74.6302,80.3777 73.5,81.5C 74.3256,82.451 74.4922,83.451 74,84.5C 73.0862,83.3463 72.2529,83.513 71.5,85C 72.9437,85.7805 74.277,85.6139 75.5,84.5C 76.6405,83.5745 76.6405,82.7412 75.5,82C 76.6667,81.5 77.5,80.6667 78,79.5C 79.5625,79.2592 81.0625,79.7592 82.5,81C 81.8333,81.6667 81.1667,82.3333 80.5,83C 82.196,84.2051 83.8627,84.7051 85.5,84.5C 84.5442,85.6594 83.5442,86.8261 82.5,88C 88.2821,95.058 93.9488,102.225 99.5,109.5C 98.277,110.614 96.9437,110.781 95.5,110C 86.6626,106.165 77.6626,103.165 68.5,101C 66.69,103.644 64.69,106.144 62.5,108.5C 65.5932,114.553 68.5932,120.553 71.5,126.5C 70.5,126.5 69.5,126.5 68.5,126.5C 68.8016,129.059 68.4682,131.393 67.5,133.5C 67.4145,124.249 62.7479,120.083 53.5,121C 47.8731,126.458 43.2064,132.624 39.5,139.5C 47.1667,144.667 54.8333,149.833 62.5,155C 64.1392,156.519 65.8058,156.686 67.5,155.5C 66.9002,156.9 65.9002,157.9 64.5,158.5C 63.8333,158.5 63.1667,158.5 62.5,158.5C 61.063,157.275 59.3964,156.275 57.5,155.5C 55.0169,160.296 52.3502,164.962 49.5,169.5C 48.3279,169.081 47.3279,168.415 46.5,167.5C 48.5,163.5 50.5,159.5 52.5,155.5C 50.5799,154.024 48.4133,153.024 46,152.5C 43.261,156.303 40.761,160.303 38.5,164.5C 37.5,164.167 36.8333,163.5 36.5,162.5C 38.5,158.5 40.5,154.5 42.5,150.5C 40.3932,148.113 37.7265,146.78 34.5,146.5C 31.4774,154.221 28.144,161.887 24.5,169.5C 29.7415,172.953 35.4081,175.619 41.5,177.5C 44.6424,179.573 47.9758,181.407 51.5,183C 46.9438,183.389 42.6105,184.555 38.5,186.5C 37.8182,185.757 37.1515,185.091 36.5,184.5C 32.9,179.431 28.2333,178.264 22.5,181C 20.9588,182.579 19.7922,184.413 19,186.5C 17.3441,192.123 15.8441,197.79 14.5,203.5C 14.8178,204.647 15.4844,205.481 16.5,206C 21.4014,207.595 26.4014,208.761 31.5,209.5C 35.862,211.344 40.5286,212.344 45.5,212.5C 43.1073,213.21 40.6073,213.877 38,214.5C 35.467,213.128 32.8003,212.128 30,211.5C 29.5,212 29,212.5 28.5,213C 30.9386,213.533 31.6052,214.7 30.5,216.5C 17.6292,210.103 11.2959,214.103 11.5,228.5C 11.5,230.167 11.5,231.833 11.5,233.5C 10.5386,235.265 10.2053,237.265 10.5,239.5C 9.49932,235.504 9.49932,231.337 10.5,227C 10.3708,225.019 9.70418,223.353 8.5,222C 9.02186,221.439 9.3552,220.772 9.5,220C 8.98957,218.174 8.15623,218.007 7,219.5C 5.78039,234.141 5.28039,248.808 5.5,263.5C 3.07753,237.899 5.07753,212.565 11.5,187.5C 12.9238,185.485 13.5905,183.152 13.5,180.5C 24.7328,140.347 45.3995,106.014 75.5,77.5 Z"/></g>
<g><path style="opacity:1" fill="#0d2a49" d="M 62.5,158.5 C 60.4492,163.619 57.9492,168.619 55,173.5C 54.5065,175.134 54.3398,176.801 54.5,178.5C 50.1311,178.533 45.7978,178.2 41.5,177.5C 35.4081,175.619 29.7415,172.953 24.5,169.5C 28.144,161.887 31.4774,154.221 34.5,146.5C 37.7265,146.78 40.3932,148.113 42.5,150.5C 40.5,154.5 38.5,158.5 36.5,162.5C 36.8333,163.5 37.5,164.167 38.5,164.5C 40.761,160.303 43.261,156.303 46,152.5C 48.4133,153.024 50.5799,154.024 52.5,155.5C 50.5,159.5 48.5,163.5 46.5,167.5C 47.3279,168.415 48.3279,169.081 49.5,169.5C 52.3502,164.962 55.0169,160.296 57.5,155.5C 59.3964,156.275 61.063,157.275 62.5,158.5 Z"/></g>
<g><path style="opacity:1" fill="#182f48" d="M 62.5,158.5 C 63.1667,158.5 63.8333,158.5 64.5,158.5C 59.001,169.832 54.3344,181.498 50.5,193.5C 45.8541,195.376 41.1875,197.043 36.5,198.5C 39.684,200.889 43.3506,202.222 47.5,202.5C 46.6261,205.789 45.9595,209.123 45.5,212.5C 40.5286,212.344 35.862,211.344 31.5,209.5C 35.1817,209.665 38.8484,209.499 42.5,209C 44.5268,207.604 44.8602,205.938 43.5,204C 42.5509,203.383 41.7175,203.549 41,204.5C 38.3815,202.418 35.5481,200.751 32.5,199.5C 37.1856,195.879 42.5189,193.712 48.5,193C 49.435,190.619 49.7683,188.119 49.5,185.5C 45.3821,186.731 41.2154,187.731 37,188.5C 36.51,187.207 36.3433,185.873 36.5,184.5C 37.1515,185.091 37.8182,185.757 38.5,186.5C 42.6105,184.555 46.9438,183.389 51.5,183C 47.9758,181.407 44.6424,179.573 41.5,177.5C 45.7978,178.2 50.1311,178.533 54.5,178.5C 54.3398,176.801 54.5065,175.134 55,173.5C 57.9492,168.619 60.4492,163.619 62.5,158.5 Z"/></g>
<g><path style="opacity:1" fill="#a1b0be" d="M 13.5,180.5 C 13.5905,183.152 12.9238,185.485 11.5,187.5C 11.4095,184.848 12.0762,182.515 13.5,180.5 Z"/></g>
<g><path style="opacity:1" fill="#0a2a4a" d="M 469.5,179.5 C 473.111,179.956 476.444,179.289 479.5,177.5C 483.368,184.292 485.701,191.625 486.5,199.5C 485.5,199.5 484.5,199.5 483.5,199.5C 482.476,195.407 481.143,191.407 479.5,187.5C 475.967,186.625 472.634,185.292 469.5,183.5C 467.717,184.348 467.217,185.681 468,187.5C 469.333,188.167 470.667,188.833 472,189.5C 472.163,193.303 473.163,196.637 475,199.5C 473.817,200.731 472.651,200.731 471.5,199.5C 471.511,196.439 470.511,193.439 468.5,190.5C 465.138,189.1 461.971,189.433 459,191.5C 459.148,192.825 458.982,193.992 458.5,195C 460.066,195.3 461.399,194.8 462.5,193.5C 462.5,194.167 462.833,194.5 463.5,194.5C 465.007,199.035 466.007,203.701 466.5,208.5C 463.794,208.575 461.127,208.908 458.5,209.5C 455.933,197.143 451.933,185.31 446.5,174C 449.167,170 451.833,166 454.5,162C 454.167,161.5 453.833,161 453.5,160.5C 450.167,162.167 446.833,163.833 443.5,165.5C 441.58,162.661 439.913,159.661 438.5,156.5C 440.822,154.336 443.489,152.669 446.5,151.5C 453.145,148.512 459.812,145.512 466.5,142.5C 472.343,149.867 475.509,158.2 476,167.5C 472.348,173.421 467.515,174.755 461.5,171.5C 458.833,175.167 456.167,178.833 453.5,182.5C 453.833,182.833 454.167,183.167 454.5,183.5C 459.406,181.753 464.406,180.419 469.5,179.5 Z"/></g>
<g><path style="opacity:1" fill="#e4f2f7" d="M 461.5,156.5 C 465.908,156.062 467.575,158.062 466.5,162.5C 462.991,162.192 461.324,160.192 461.5,156.5 Z"/></g>
<g><path style="opacity:1" fill="#112c46" d="M 487.5,193.5 C 487.833,196.167 488.167,198.833 488.5,201.5C 486.051,202.057 483.718,202.057 481.5,201.5C 479.71,197.342 478.71,193.009 478.5,188.5C 477.167,188.5 475.833,188.5 474.5,188.5C 476.404,193.312 477.404,198.312 477.5,203.5C 475.139,203.674 472.806,204.007 470.5,204.5C 469.964,200.686 468.964,197.019 467.5,193.5C 467.209,192.351 466.376,191.684 465,191.5C 463.624,191.684 462.791,192.351 462.5,193.5C 461.399,194.8 460.066,195.3 458.5,195C 458.982,193.992 459.148,192.825 459,191.5C 461.971,189.433 465.138,189.1 468.5,190.5C 470.511,193.439 471.511,196.439 471.5,199.5C 472.651,200.731 473.817,200.731 475,199.5C 473.163,196.637 472.163,193.303 472,189.5C 470.667,188.833 469.333,188.167 468,187.5C 467.217,185.681 467.717,184.348 469.5,183.5C 472.634,185.292 475.967,186.625 479.5,187.5C 481.143,191.407 482.476,195.407 483.5,199.5C 484.5,199.5 485.5,199.5 486.5,199.5C 485.701,191.625 483.368,184.292 479.5,177.5C 476.444,179.289 473.111,179.956 469.5,179.5C 473.609,177.632 477.942,176.466 482.5,176C 484.269,181.808 485.936,187.641 487.5,193.5 Z"/></g>
<g><path style="opacity:1" fill="#092949" d="M 36.5,184.5 C 36.3433,185.873 36.51,187.207 37,188.5C 41.2154,187.731 45.3821,186.731 49.5,185.5C 49.7683,188.119 49.435,190.619 48.5,193C 42.5189,193.712 37.1856,195.879 32.5,199.5C 35.5481,200.751 38.3815,202.418 41,204.5C 41.7175,203.549 42.5509,203.383 43.5,204C 44.8602,205.938 44.5268,207.604 42.5,209C 38.8484,209.499 35.1817,209.665 31.5,209.5C 26.4014,208.761 21.4014,207.595 16.5,206C 15.4844,205.481 14.8178,204.647 14.5,203.5C 15.8441,197.79 17.3441,192.123 19,186.5C 19.7922,184.413 20.9588,182.579 22.5,181C 28.2333,178.264 32.9,179.431 36.5,184.5 Z"/></g>
<g><path style="opacity:1" fill="#1f3762" d="M 370.5,234.5 C 378.049,236.638 385.715,238.638 393.5,240.5C 396.144,242.157 399.144,243.49 402.5,244.5C 403.333,245.5 404.167,246.5 405,247.5C 405.333,247.167 405.667,246.833 406,246.5C 410.699,248.668 410.532,249.668 405.5,249.5C 405.281,250.675 405.614,251.675 406.5,252.5C 410.968,249.657 414.968,250.324 418.5,254.5C 416.564,257.208 416.064,260.208 417,263.5C 417.333,262.167 417.667,260.833 418,259.5C 418.333,259.833 418.667,260.167 419,260.5C 420,257.833 421,257.833 422,260.5C 423.886,269.543 423.553,278.543 421,287.5C 420.552,289.224 419.718,289.891 418.5,289.5C 421.386,296.97 421.053,304.303 417.5,311.5C 416.675,312.386 415.675,312.719 414.5,312.5C 414.075,317.602 413.075,322.602 411.5,327.5C 407.348,336.965 402.015,345.632 395.5,353.5C 393.574,354.242 391.741,355.242 390,356.5C 388.951,354.893 387.451,354.227 385.5,354.5C 385.297,352.61 385.963,351.11 387.5,350C 386.061,349.009 385.061,347.676 384.5,346C 382.899,345.727 381.399,345.227 380,344.5C 380.635,335.941 376.801,332.774 368.5,335C 370.619,335.342 370.953,336.175 369.5,337.5C 368.527,339.948 368.194,342.615 368.5,345.5C 366.167,345.5 363.833,345.5 361.5,345.5C 361.5,342.833 361.5,340.167 361.5,337.5C 359.088,335.838 356.254,334.838 353,334.5C 352.86,337.043 352.194,339.377 351,341.5C 350.488,337.771 348.655,336.437 345.5,337.5C 341.486,337.334 337.486,337.501 333.5,338C 330.977,339.36 328.977,341.193 327.5,343.5C 326.504,343.414 325.671,343.748 325,344.5C 324.768,343.263 324.268,342.263 323.5,341.5C 321.286,338.148 318.119,336.815 314,337.5C 305.01,337.496 302.843,341.162 307.5,348.5C 310.432,349.817 313.432,350.984 316.5,352C 317.337,353.011 317.67,354.178 317.5,355.5C 315.5,355.5 313.5,355.5 311.5,355.5C 311.5,354.5 311.5,353.5 311.5,352.5C 309.167,352.5 306.833,352.5 304.5,352.5C 304.253,354.858 304.919,356.858 306.5,358.5C 306.539,359.583 306.873,360.583 307.5,361.5C 315.29,364.095 321.79,362.429 327,356.5C 328.612,359.479 331.112,360.812 334.5,360.5C 340.127,363.384 345.627,362.717 351,358.5C 351.902,358.743 352.735,359.077 353.5,359.5C 355.948,360.473 358.615,360.806 361.5,360.5C 361.5,357.5 361.5,354.5 361.5,351.5C 363.833,351.5 366.167,351.5 368.5,351.5C 368.19,354.713 368.523,357.713 369.5,360.5C 369.383,362.484 370.05,364.15 371.5,365.5C 370.652,367.409 370.318,369.409 370.5,371.5C 369.5,371.5 368.5,371.5 367.5,371.5C 367.238,372.978 367.571,374.311 368.5,375.5C 370.291,373.587 372.291,371.92 374.5,370.5C 375.681,368.865 375.681,367.198 374.5,365.5C 377.818,360.92 379.485,355.753 379.5,350C 382.693,349.189 383.693,350.189 382.5,353C 384.413,355.581 386.413,358.081 388.5,360.5C 386.41,363.009 384.577,362.675 383,359.5C 381.842,359.998 381.009,360.831 380.5,362C 381.742,363.445 382.575,364.945 383,366.5C 379.47,370.179 375.97,373.846 372.5,377.5C 370.827,379.086 368.827,379.753 366.5,379.5C 366.5,381.167 366.5,382.833 366.5,384.5C 344.981,401.757 320.647,413.424 293.5,419.5C 275.555,421.362 257.555,422.196 239.5,422C 233.61,420.755 227.61,420.088 221.5,420C 217.283,417.286 212.617,415.952 207.5,416C 202.936,411.883 197.603,409.716 191.5,409.5C 191.871,404.648 190.538,403.815 187.5,407C 185.527,407.495 183.527,407.662 181.5,407.5C 143.602,389.769 115.436,362.103 97,324.5C 90.7528,310.683 86.2528,296.35 83.5,281.5C 82.0691,269.216 81.4025,256.883 81.5,244.5C 82.5,244.5 83.5,244.5 84.5,244.5C 87.6843,246.414 91.351,247.08 95.5,246.5C 112.174,246.778 128.84,246.945 145.5,247C 152.167,239 158.833,231 165.5,223C 173.528,223.005 181.528,223.338 189.5,224C 195.655,219.089 201.989,214.423 208.5,210C 216.826,210.274 225.159,210.774 233.5,211.5C 238.103,213.328 242.769,213.661 247.5,212.5C 256.673,202.805 265.839,193.138 275,183.5C 289.648,188.271 304.482,192.438 319.5,196C 324.105,204.543 328.438,213.209 332.5,222C 344.77,227.479 357.436,231.646 370.5,234.5 Z"/></g>
<g><path style="opacity:1" fill="#c6d6de" d="M 26.5,190.5 C 27.5,190.5 28.5,190.5 29.5,190.5C 29.5,192.833 29.5,195.167 29.5,197.5C 24.1605,197.177 23.1605,194.843 26.5,190.5 Z"/></g>
<g><path style="opacity:1" fill="#9aabba" d="M 467.5,193.5 C 465.544,191.825 464.211,192.158 463.5,194.5C 462.833,194.5 462.5,194.167 462.5,193.5C 462.791,192.351 463.624,191.684 465,191.5C 466.376,191.684 467.209,192.351 467.5,193.5 Z"/></g>
<g><path style="opacity:1" fill="#576776" d="M 487.5,193.5 C 489.413,196.04 489.746,198.707 488.5,201.5C 488.167,198.833 487.833,196.167 487.5,193.5 Z"/></g>
<g><path style="opacity:1" fill="#152f4b" d="M 491.5,209.5 C 492.806,212.687 492.806,216.02 491.5,219.5C 488.239,221.949 485.239,224.616 482.5,227.5C 481.624,227.369 480.957,227.702 480.5,228.5C 484.783,229.492 489.116,229.826 493.5,229.5C 494.479,232.625 494.813,235.958 494.5,239.5C 488.819,239.635 483.152,239.968 477.5,240.5C 472.493,240.751 467.493,241.084 462.5,241.5C 461.508,238.221 461.341,234.888 462,231.5C 465.833,228.333 469.667,225.167 473.5,222C 470.854,221.503 468.187,221.336 465.5,221.5C 468.36,220.756 471.36,220.089 474.5,219.5C 475.354,220.522 476.354,221.355 477.5,222C 474.855,224.955 472.188,227.955 469.5,231C 467.866,231.494 466.199,231.66 464.5,231.5C 464.148,234.073 464.648,236.406 466,238.5C 474.745,238.392 483.578,238.226 492.5,238C 491.833,236 491.167,234 490.5,232C 486.833,231.333 483.167,231.333 479.5,232C 479,232.5 478.5,233 478,233.5C 477.647,232.328 477.813,231.162 478.5,230C 477.576,228.189 476.743,228.355 476,230.5C 475.785,226.872 477.619,224.872 481.5,224.5C 482.253,222.247 483.586,220.413 485.5,219C 481.834,217.667 478.167,216.334 474.5,215C 473.366,213.984 473.699,213.317 475.5,213C 470.411,212.966 465.411,212.8 460.5,212.5C 460.5,215.5 460.5,218.5 460.5,221.5C 459.521,218.375 459.187,215.042 459.5,211.5C 470.132,210.338 480.799,209.671 491.5,209.5 Z"/></g>
<g><path style="opacity:1" fill="#a4b1c4" d="M 233.5,211.5 C 238.181,211.669 242.848,212.002 247.5,212.5C 242.769,213.661 238.103,213.328 233.5,211.5 Z"/></g>
<g><path style="opacity:1" fill="#b0bcc9" d="M 497.5,211.5 C 498.972,215.919 499.638,220.586 499.5,225.5C 498.028,221.081 497.362,216.414 497.5,211.5 Z"/></g>
<g><path style="opacity:1" fill="#bcc7d1" d="M 482.5,227.5 C 486.167,228.167 489.833,228.833 493.5,229.5C 489.116,229.826 484.783,229.492 480.5,228.5C 480.957,227.702 481.624,227.369 482.5,227.5 Z"/></g>
<g><path style="opacity:1" fill="#04284b" d="M 465.5,221.5 C 463.833,221.5 462.167,221.5 460.5,221.5C 460.5,218.5 460.5,215.5 460.5,212.5C 465.411,212.8 470.411,212.966 475.5,213C 473.699,213.317 473.366,213.984 474.5,215C 478.167,216.334 481.834,217.667 485.5,219C 483.586,220.413 482.253,222.247 481.5,224.5C 477.619,224.872 475.785,226.872 476,230.5C 476.743,228.355 477.576,228.189 478.5,230C 477.813,231.162 477.647,232.328 478,233.5C 478.5,233 479,232.5 479.5,232C 483.167,231.333 486.833,231.333 490.5,232C 491.167,234 491.833,236 492.5,238C 483.578,238.226 474.745,238.392 466,238.5C 464.648,236.406 464.148,234.073 464.5,231.5C 466.199,231.66 467.866,231.494 469.5,231C 472.188,227.955 474.855,224.955 477.5,222C 476.354,221.355 475.354,220.522 474.5,219.5C 471.36,220.089 468.36,220.756 465.5,221.5 Z"/></g>
<g><path style="opacity:1" fill="#05284a" d="M 11.5,233.5 C 11.5,231.833 11.5,230.167 11.5,228.5C 12.2644,226.26 13.0977,223.927 14,221.5C 15.5095,220.91 17.0095,220.244 18.5,219.5C 17.7951,215.067 19.7951,213.567 24.5,215C 29.8562,219.453 32.0229,225.286 31,232.5C 34.3763,231.635 37.7096,231.968 41,233.5C 41.0178,235.797 40.8511,238.131 40.5,240.5C 35.0488,240.841 29.8822,239.841 25,237.5C 22.5991,238.602 20.0991,238.769 17.5,238C 16.7513,236.081 15.5846,233.914 14,231.5C 13.4888,233.878 12.8221,236.212 12,238.5C 11.5065,236.866 11.3398,235.199 11.5,233.5 Z"/></g>
<g><path style="opacity:1" fill="#c7d9e5" d="M 19.5,224.5 C 21.1667,224.5 22.8333,224.5 24.5,224.5C 24.5,226.167 24.5,227.833 24.5,229.5C 22.8333,229.5 21.1667,229.5 19.5,229.5C 19.5,227.833 19.5,226.167 19.5,224.5 Z"/></g>
<g><path style="opacity:1" fill="#647787" d="M 36.5,230.5 C 38.8333,230.5 41.1667,230.5 43.5,230.5C 43.815,234.371 43.4816,238.038 42.5,241.5C 42.5,238.167 42.5,234.833 42.5,231.5C 40.2646,231.795 38.2646,231.461 36.5,230.5 Z"/></g>
<g><path style="opacity:1" fill="#d8e0e9" d="M 403.5,242.5 C 400.198,241.706 396.865,241.04 393.5,240.5C 385.715,238.638 378.049,236.638 370.5,234.5C 373.448,234.777 376.281,234.444 379,233.5C 380.797,235.156 382.964,236.156 385.5,236.5C 385.833,235.833 386.167,235.167 386.5,234.5C 387.192,235.025 387.692,235.692 388,236.5C 389.84,235.167 390.34,235.334 389.5,237C 393.716,238.549 398.05,239.715 402.5,240.5C 402.863,241.183 403.196,241.85 403.5,242.5 Z"/></g>
<g><path style="opacity:1" fill="#172e47" d="M 30.5,216.5 C 32.3006,220.933 32.9672,225.6 32.5,230.5C 33.8333,230.5 35.1667,230.5 36.5,230.5C 38.2646,231.461 40.2646,231.795 42.5,231.5C 42.5,234.833 42.5,238.167 42.5,241.5C 31.747,241.338 21.0803,240.672 10.5,239.5C 10.2053,237.265 10.5386,235.265 11.5,233.5C 11.3398,235.199 11.5065,236.866 12,238.5C 12.8221,236.212 13.4888,233.878 14,231.5C 15.5846,233.914 16.7513,236.081 17.5,238C 20.0991,238.769 22.5991,238.602 25,237.5C 29.8822,239.841 35.0488,240.841 40.5,240.5C 40.8511,238.131 41.0178,235.797 41,233.5C 37.7096,231.968 34.3763,231.635 31,232.5C 32.0229,225.286 29.8562,219.453 24.5,215C 19.7951,213.567 17.7951,215.067 18.5,219.5C 17.0095,220.244 15.5095,220.91 14,221.5C 13.0977,223.927 12.2644,226.26 11.5,228.5C 11.2959,214.103 17.6292,210.103 30.5,216.5 Z"/></g>
<g><path style="opacity:1" fill="#aabac5" d="M 477.5,240.5 C 472.566,242.383 467.566,242.716 462.5,241.5C 467.493,241.084 472.493,240.751 477.5,240.5 Z"/></g>
<g><path style="opacity:1" fill="#475670" d="M 81.5,229.5 C 81.5,234.5 81.5,239.5 81.5,244.5C 81.4025,256.883 82.0691,269.216 83.5,281.5C 80.4654,264.252 79.7987,246.919 81.5,229.5 Z"/></g>
<g><path style="opacity:1" fill="#8b98ae" d="M 85.5,235.5 C 85.5,238.833 85.5,242.167 85.5,245.5C 89.0419,245.187 92.3752,245.521 95.5,246.5C 91.351,247.08 87.6843,246.414 84.5,244.5C 84.19,241.287 84.5233,238.287 85.5,235.5 Z"/></g>
<g><path style="opacity:1" fill="#cedae4" d="M 499.5,231.5 C 500.88,244.866 500.547,258.199 498.5,271.5C 499.055,258.173 499.389,244.84 499.5,231.5 Z"/></g>
<g><path style="opacity:1" fill="#eff3f5" d="M 145.5,284.5 C 148.167,284.5 150.833,284.5 153.5,284.5C 153.5,291.167 153.5,297.833 153.5,304.5C 157.833,304.5 162.167,304.5 166.5,304.5C 166.5,306.5 166.5,308.5 166.5,310.5C 159.5,310.5 152.5,310.5 145.5,310.5C 144.167,301.833 144.167,293.167 145.5,284.5 Z"/></g>
<g><path style="opacity:1" fill="#f6f9fa" d="M 268.5,284.5 C 275.175,284.334 281.842,284.5 288.5,285C 292.292,287.053 293.458,290.219 292,294.5C 291.167,296.667 289.667,298.167 287.5,299C 290.422,302.092 292.755,305.592 294.5,309.5C 291.554,310.655 288.554,310.821 285.5,310C 283.623,307.749 282.123,305.249 281,302.5C 279.89,300.963 278.39,300.297 276.5,300.5C 276.5,303.833 276.5,307.167 276.5,310.5C 273.833,310.5 271.167,310.5 268.5,310.5C 268.5,301.833 268.5,293.167 268.5,284.5 Z"/></g>
<g><path style="opacity:1" fill="#79859a" d="M 268.5,284.5 C 268.5,293.167 268.5,301.833 268.5,310.5C 271.167,310.5 273.833,310.5 276.5,310.5C 273.713,311.477 270.713,311.81 267.5,311.5C 267.173,302.318 267.507,293.318 268.5,284.5 Z"/></g>
<g><path style="opacity:1" fill="#5c6978" d="M 283.5,290.5 C 281.5,290.5 279.5,290.5 277.5,290.5C 277.5,291.833 277.5,293.167 277.5,294.5C 279.167,294.5 280.833,294.5 282.5,294.5C 280.735,295.461 278.735,295.795 276.5,295.5C 276.5,293.5 276.5,291.5 276.5,289.5C 279.059,289.198 281.393,289.532 283.5,290.5 Z"/></g>
<g><path style="opacity:1" fill="#8a94ac" d="M 224.5,284.5 C 222.167,284.5 219.833,284.5 217.5,284.5C 217.5,293.167 217.5,301.833 217.5,310.5C 219.833,310.5 222.167,310.5 224.5,310.5C 222.052,311.473 219.385,311.806 216.5,311.5C 216.5,302.5 216.5,293.5 216.5,284.5C 219.167,283.167 221.833,283.167 224.5,284.5 Z"/></g>
<g><path style="opacity:1" fill="#283751" d="M 283.5,290.5 C 284.853,292.128 284.519,293.462 282.5,294.5C 280.833,294.5 279.167,294.5 277.5,294.5C 277.5,293.167 277.5,291.833 277.5,290.5C 279.5,290.5 281.5,290.5 283.5,290.5 Z"/></g>
<g><path style="opacity:1" fill="#eff3f6" d="M 340.5,309.5 C 325.849,314.504 319.849,309.504 322.5,294.5C 323.167,294.5 323.5,294.167 323.5,293.5C 328.25,291.519 333.25,291.019 338.5,292C 340.833,293 342.5,294.667 343.5,297C 342.4,298.023 341.067,298.523 339.5,298.5C 336.715,296.911 333.715,296.411 330.5,297C 328.604,298.808 328.104,300.975 329,303.5C 331.146,307.319 333.646,307.485 336.5,304C 338.81,303.503 341.143,303.337 343.5,303.5C 343.385,305.947 342.385,307.947 340.5,309.5 Z"/></g>
<g><path style="opacity:1" fill="#1e3763" d="M 57.5,296.5 C 58.5,296.833 59.1667,297.5 59.5,298.5C 58.7515,299.531 58.0848,300.698 57.5,302C 60.3694,306.926 59.3694,311.092 54.5,314.5C 53.2638,313.754 51.9305,313.421 50.5,313.5C 50.5,315.5 50.5,317.5 50.5,319.5C 48.1732,319.335 46.0065,318.669 44,317.5C 43.2753,318.059 42.4419,318.392 41.5,318.5C 30.4473,313.349 28.614,306.015 36,296.5C 39.3281,292.583 43.4948,291.083 48.5,292C 51.4111,293.761 54.4111,295.261 57.5,296.5 Z"/></g>
<g><path style="opacity:1" fill="#2e3d5a" d="M 322.5,294.5 C 319.849,309.504 325.849,314.504 340.5,309.5C 341.404,310.209 341.737,311.209 341.5,312.5C 339.265,312.205 337.265,312.539 335.5,313.5C 331.837,313.048 328.17,312.548 324.5,312C 322.99,309.991 321.323,308.158 319.5,306.5C 318.274,308.278 316.607,309.278 314.5,309.5C 320.339,302.88 319.673,297.047 312.5,292C 298.883,289.443 293.883,294.61 297.5,307.5C 295.896,308.287 295.229,309.62 295.5,311.5C 291.5,311.5 287.5,311.5 283.5,311.5C 283.452,308.365 281.785,306.698 278.5,306.5C 281.131,304.995 280.797,304.329 277.5,304.5C 277.795,306.735 277.461,308.735 276.5,310.5C 276.5,307.167 276.5,303.833 276.5,300.5C 278.39,300.297 279.89,300.963 281,302.5C 282.123,305.249 283.623,307.749 285.5,310C 288.554,310.821 291.554,310.655 294.5,309.5C 292.755,305.592 290.422,302.092 287.5,299C 289.667,298.167 291.167,296.667 292,294.5C 293.458,290.219 292.292,287.053 288.5,285C 281.842,284.5 275.175,284.334 268.5,284.5C 268.611,283.883 268.944,283.383 269.5,283C 277.625,282.015 285.625,282.515 293.5,284.5C 294.873,286.49 295.873,288.657 296.5,291C 301.342,289.685 306.342,289.352 311.5,290C 314.184,290.778 316.517,292.111 318.5,294C 319.793,294.49 321.127,294.657 322.5,294.5 Z"/></g>
<g><path style="opacity:1" fill="#eff2f5" d="M 314.5,309.5 C 308.404,312.53 302.737,311.863 297.5,307.5C 293.883,294.61 298.883,289.443 312.5,292C 319.673,297.047 320.339,302.88 314.5,309.5 Z"/></g>
<g><path style="opacity:1" fill="#f1f4f6" d="M 250.5,297.5 C 250.5,299.167 250.5,300.833 250.5,302.5C 245.637,302.181 240.97,302.514 236.5,303.5C 236.414,304.496 236.748,305.329 237.5,306C 241.855,305.581 246.188,305.747 250.5,306.5C 249.451,308.216 248.118,309.549 246.5,310.5C 233.603,314.426 227.769,309.759 229,296.5C 234.189,291.165 240.356,289.998 247.5,293C 249.141,294.129 250.141,295.629 250.5,297.5 Z"/></g>
<g><path style="opacity:1" fill="#2e3c59" d="M 304.5,296.5 C 310.204,296.146 312.037,298.813 310,304.5C 308,307.167 306,307.167 304,304.5C 303.278,301.739 303.445,299.073 304.5,296.5 Z"/></g>
<g><path style="opacity:1" fill="#273859" d="M 200.5,287.5 C 200.5,288.5 200.5,289.5 200.5,290.5C 197.833,290.5 195.167,290.5 192.5,290.5C 192.5,288.5 192.5,286.5 192.5,284.5C 191.209,284.263 190.209,284.596 189.5,285.5C 185.643,285.69 183.976,287.69 184.5,291.5C 183.5,291.5 182.5,291.5 181.5,291.5C 181.5,293.167 181.5,294.833 181.5,296.5C 182.5,296.5 183.5,296.5 184.5,296.5C 184.228,300.902 184.561,305.235 185.5,309.5C 187.192,310.969 189.192,311.635 191.5,311.5C 193.045,311.489 194.378,311.156 195.5,310.5C 196.451,309.081 196.784,307.415 196.5,305.5C 195.167,305.5 193.833,305.5 192.5,305.5C 192.5,302.833 192.5,300.167 192.5,297.5C 193.833,297.5 195.167,297.5 196.5,297.5C 196.338,295.473 196.505,293.473 197,291.5C 197.198,293.382 197.698,295.048 198.5,296.5C 199.5,296.5 200.5,296.5 201.5,296.5C 201.228,300.902 201.561,305.235 202.5,309.5C 204.192,310.969 206.192,311.635 208.5,311.5C 210.045,311.489 211.378,311.156 212.5,310.5C 213.451,309.081 213.784,307.415 213.5,305.5C 212.167,305.5 210.833,305.5 209.5,305.5C 209.5,302.833 209.5,300.167 209.5,297.5C 210.833,297.5 212.167,297.5 213.5,297.5C 213.795,295.265 213.461,293.265 212.5,291.5C 211.5,291.5 210.5,291.5 209.5,291.5C 209.5,289.167 209.5,286.833 209.5,284.5C 208.209,284.263 207.209,284.596 206.5,285.5C 205.167,285.833 203.833,286.167 202.5,286.5C 202.33,285.178 202.663,284.011 203.5,283C 205.355,282.578 207.189,282.078 209,281.5C 210.326,282.799 211.66,284.132 213,285.5C 214.011,284.663 215.178,284.33 216.5,284.5C 216.5,293.5 216.5,302.5 216.5,311.5C 219.385,311.806 222.052,311.473 224.5,310.5C 224.5,301.833 224.5,293.167 224.5,284.5C 227.511,285.182 228.177,287.015 226.5,290C 226.309,291.973 226.976,293.473 228.5,294.5C 229.167,292.833 229.833,291.167 230.5,289.5C 236.891,290.044 243.225,290.877 249.5,292C 252.5,294.68 254.166,298.013 254.5,302C 253.756,303.039 252.756,303.539 251.5,303.5C 251.795,301.265 251.461,299.265 250.5,297.5C 250.141,295.629 249.141,294.129 247.5,293C 240.356,289.998 234.189,291.165 229,296.5C 227.769,309.759 233.603,314.426 246.5,310.5C 245.339,312.672 243.505,314.006 241,314.5C 236.562,313.531 232.395,311.865 228.5,309.5C 226.465,310.597 225.132,312.263 224.5,314.5C 217.589,312.549 210.589,312.549 203.5,314.5C 200.312,310.046 198.812,305.046 199,299.5C 197.989,298.663 196.822,298.33 195.5,298.5C 195.474,301.876 196.141,305.042 197.5,308C 197.397,309.561 197.063,311.061 196.5,312.5C 192.172,313.012 188.172,314.345 184.5,316.5C 180.279,315.459 179.779,313.793 183,311.5C 183.588,308.254 182.921,305.254 181,302.5C 180.461,305.529 179.794,308.529 179,311.5C 177.301,312.406 175.467,312.739 173.5,312.5C 172.448,312.649 171.448,312.483 170.5,312C 173.036,311.814 175.369,311.314 177.5,310.5C 177.5,304.167 177.5,297.833 177.5,291.5C 175.167,291.5 172.833,291.5 170.5,291.5C 169.833,297.679 169.167,304.012 168.5,310.5C 167.534,308.604 167.201,306.604 167.5,304.5C 168.479,297.327 168.479,290.161 167.5,283C 173.208,279.651 178.375,280.151 183,284.5C 184.774,282.06 187.108,280.394 190,279.5C 192.524,281.011 194.357,283.178 195.5,286C 195.095,286.945 194.428,287.612 193.5,288C 195.345,289.128 197.345,289.628 199.5,289.5C 199.343,288.127 199.51,286.793 200,285.5C 200.464,286.094 200.631,286.761 200.5,287.5 Z"/></g>
<g><path style="opacity:1" fill="#9aa1b3" d="M 250.5,297.5 C 251.461,299.265 251.795,301.265 251.5,303.5C 246.5,303.5 241.5,303.5 236.5,303.5C 240.97,302.514 245.637,302.181 250.5,302.5C 250.5,300.833 250.5,299.167 250.5,297.5 Z"/></g>
<g><path style="opacity:1" fill="#767f8f" d="M 212.5,291.5 C 213.461,293.265 213.795,295.265 213.5,297.5C 212.167,297.5 210.833,297.5 209.5,297.5C 209.5,300.167 209.5,302.833 209.5,305.5C 208.523,302.713 208.19,299.713 208.5,296.5C 209.833,296.5 211.167,296.5 212.5,296.5C 212.5,294.833 212.5,293.167 212.5,291.5 Z"/></g>
<g><path style="opacity:1" fill="#3c445b" d="M 237.5,295.5 C 240.278,295.022 242.278,296.022 243.5,298.5C 241.257,299.474 238.924,299.808 236.5,299.5C 236.433,298.041 236.766,296.708 237.5,295.5 Z"/></g>
<g><path style="opacity:1" fill="#6c768a" d="M 189.5,285.5 C 190.209,284.596 191.209,284.263 192.5,284.5C 192.5,286.5 192.5,288.5 192.5,290.5C 195.167,290.5 197.833,290.5 200.5,290.5C 200.5,289.5 200.5,288.5 200.5,287.5C 200.833,287.5 201.167,287.5 201.5,287.5C 201.5,288.833 201.5,290.167 201.5,291.5C 200.5,291.5 199.5,291.5 198.5,291.5C 198.5,293.167 198.5,294.833 198.5,296.5C 197.698,295.048 197.198,293.382 197,291.5C 196.505,293.473 196.338,295.473 196.5,297.5C 195.167,297.5 193.833,297.5 192.5,297.5C 192.5,300.167 192.5,302.833 192.5,305.5C 191.523,302.713 191.19,299.713 191.5,296.5C 192.833,296.5 194.167,296.5 195.5,296.5C 195.5,294.833 195.5,293.167 195.5,291.5C 194.167,291.5 192.833,291.5 191.5,291.5C 191.975,288.918 191.308,286.918 189.5,285.5 Z"/></g>
<g><path style="opacity:1" fill="#f7fafd" d="M 170.5,291.5 C 172.833,291.5 175.167,291.5 177.5,291.5C 177.5,297.833 177.5,304.167 177.5,310.5C 175.167,310.5 172.833,310.5 170.5,310.5C 170.5,304.167 170.5,297.833 170.5,291.5 Z"/></g>
<g><path style="opacity:1" fill="#f4f8fa" d="M 206.5,285.5 C 208.06,287.156 209.06,289.156 209.5,291.5C 210.5,291.5 211.5,291.5 212.5,291.5C 212.5,293.167 212.5,294.833 212.5,296.5C 211.167,296.5 209.833,296.5 208.5,296.5C 208.19,299.713 208.523,302.713 209.5,305.5C 210.209,306.404 211.209,306.737 212.5,306.5C 212.5,307.833 212.5,309.167 212.5,310.5C 211.378,311.156 210.045,311.489 208.5,311.5C 206.192,311.635 204.192,310.969 202.5,309.5C 201.561,305.235 201.228,300.902 201.5,296.5C 200.5,296.5 199.5,296.5 198.5,296.5C 198.5,294.833 198.5,293.167 198.5,291.5C 199.5,291.5 200.5,291.5 201.5,291.5C 201.5,290.167 201.5,288.833 201.5,287.5C 202.167,287.5 202.5,287.167 202.5,286.5C 203.833,286.167 205.167,285.833 206.5,285.5 Z"/></g>
<g><path style="opacity:1" fill="#748291" d="M 206.5,285.5 C 207.209,284.596 208.209,284.263 209.5,284.5C 209.5,286.833 209.5,289.167 209.5,291.5C 209.06,289.156 208.06,287.156 206.5,285.5 Z"/></g>
<g><path style="opacity:1" fill="#f5f8f9" d="M 189.5,285.5 C 191.308,286.918 191.975,288.918 191.5,291.5C 192.833,291.5 194.167,291.5 195.5,291.5C 195.5,293.167 195.5,294.833 195.5,296.5C 194.167,296.5 192.833,296.5 191.5,296.5C 191.19,299.713 191.523,302.713 192.5,305.5C 193.209,306.404 194.209,306.737 195.5,306.5C 195.5,307.833 195.5,309.167 195.5,310.5C 194.378,311.156 193.045,311.489 191.5,311.5C 189.192,311.635 187.192,310.969 185.5,309.5C 184.561,305.235 184.228,300.902 184.5,296.5C 183.5,296.5 182.5,296.5 181.5,296.5C 181.5,294.833 181.5,293.167 181.5,291.5C 182.5,291.5 183.5,291.5 184.5,291.5C 183.976,287.69 185.643,285.69 189.5,285.5 Z"/></g>
<g><path style="opacity:1" fill="#f8fbfb" d="M 224.5,284.5 C 224.5,293.167 224.5,301.833 224.5,310.5C 222.167,310.5 219.833,310.5 217.5,310.5C 217.5,301.833 217.5,293.167 217.5,284.5C 219.833,284.5 222.167,284.5 224.5,284.5 Z"/></g>
<g><path style="opacity:1" fill="#e5edf3" d="M 170.5,284.5 C 172.833,284.5 175.167,284.5 177.5,284.5C 177.5,286.167 177.5,287.833 177.5,289.5C 175.167,289.5 172.833,289.5 170.5,289.5C 170.5,287.833 170.5,286.167 170.5,284.5 Z"/></g>
<g><path style="opacity:1" fill="#8995ac" d="M 192.5,305.5 C 193.833,305.5 195.167,305.5 196.5,305.5C 196.784,307.415 196.451,309.081 195.5,310.5C 195.5,309.167 195.5,307.833 195.5,306.5C 194.209,306.737 193.209,306.404 192.5,305.5 Z"/></g>
<g><path style="opacity:1" fill="#8c99ae" d="M 209.5,305.5 C 210.833,305.5 212.167,305.5 213.5,305.5C 213.784,307.415 213.451,309.081 212.5,310.5C 212.5,309.167 212.5,307.833 212.5,306.5C 211.209,306.737 210.209,306.404 209.5,305.5 Z"/></g>
<g><path style="opacity:1" fill="#293a5c" d="M 335.5,313.5 C 337.265,312.539 339.265,312.205 341.5,312.5C 341.737,311.209 341.404,310.209 340.5,309.5C 342.385,307.947 343.385,305.947 343.5,303.5C 341.143,303.337 338.81,303.503 336.5,304C 333.646,307.485 331.146,307.319 329,303.5C 328.104,300.975 328.604,298.808 330.5,297C 333.715,296.411 336.715,296.911 339.5,298.5C 341.067,298.523 342.4,298.023 343.5,297C 342.5,294.667 340.833,293 338.5,292C 333.25,291.019 328.25,291.519 323.5,293.5C 323.5,292.5 323.5,291.5 323.5,290.5C 328.769,289.351 334.102,288.517 339.5,288C 341.833,286.333 343.833,284.333 345.5,282C 353.494,278.805 357.16,281.638 356.5,290.5C 360.846,290.334 365.179,290.501 369.5,291C 371.373,292.085 373.04,293.418 374.5,295C 373.887,297.147 373.221,299.314 372.5,301.5C 366.269,296.915 364.936,298.248 368.5,305.5C 372.179,306.258 373.179,308.258 371.5,311.5C 365.514,312.341 359.847,314.008 354.5,316.5C 354.5,315.5 354.5,314.5 354.5,313.5C 351.5,313.5 348.5,313.5 345.5,313.5C 345.5,315.5 345.5,317.5 345.5,319.5C 344.167,319.5 342.833,319.5 341.5,319.5C 341.5,317.5 341.5,315.5 341.5,313.5C 339.5,313.5 337.5,313.5 335.5,313.5 Z"/></g>
<g><path style="opacity:1" fill="#f1f5f7" d="M 346.5,284.5 C 349.167,284.5 351.833,284.5 354.5,284.5C 354.334,288.846 354.501,293.179 355,297.5C 357.815,291.831 362.315,289.998 368.5,292C 366.316,294.016 364.316,296.183 362.5,298.5C 365.111,302.173 367.445,306.006 369.5,310C 366.518,310.498 363.518,310.665 360.5,310.5C 358.002,301.292 356.002,301.292 354.5,310.5C 351.833,310.5 349.167,310.5 346.5,310.5C 346.5,301.833 346.5,293.167 346.5,284.5 Z"/></g>
<g><path style="opacity:1" fill="#44536f" d="M 145.5,284.5 C 148.287,283.523 151.287,283.19 154.5,283.5C 154.5,290.167 154.5,296.833 154.5,303.5C 159.032,303.182 163.366,303.515 167.5,304.5C 167.201,306.604 167.534,308.604 168.5,310.5C 169.167,304.012 169.833,297.679 170.5,291.5C 170.5,297.833 170.5,304.167 170.5,310.5C 172.833,310.5 175.167,310.5 177.5,310.5C 175.369,311.314 173.036,311.814 170.5,312C 171.448,312.483 172.448,312.649 173.5,312.5C 173.326,314.861 172.993,317.194 172.5,319.5C 171.5,319.5 170.5,319.5 169.5,319.5C 169.5,316.833 169.5,314.167 169.5,311.5C 161.316,311.826 153.316,311.492 145.5,310.5C 152.5,310.5 159.5,310.5 166.5,310.5C 166.5,308.5 166.5,306.5 166.5,304.5C 162.167,304.5 157.833,304.5 153.5,304.5C 153.5,297.833 153.5,291.167 153.5,284.5C 150.833,284.5 148.167,284.5 145.5,284.5 Z"/></g>
<g><path style="opacity:1" fill="#2b3c5d" d="M 57.5,296.5 C 54.4111,295.261 51.4111,293.761 48.5,292C 43.4948,291.083 39.3281,292.583 36,296.5C 28.614,306.015 30.4473,313.349 41.5,318.5C 42.4419,318.392 43.2753,318.059 44,317.5C 46.0065,318.669 48.1732,319.335 50.5,319.5C 50.5,317.5 50.5,315.5 50.5,313.5C 51.9305,313.421 53.2638,313.754 54.5,314.5C 59.3694,311.092 60.3694,306.926 57.5,302C 58.0848,300.698 58.7515,299.531 59.5,298.5C 63.9021,315.284 57.2354,322.784 39.5,321C 29.3288,314.836 27.1621,306.669 33,296.5C 41.2519,288.553 49.4186,288.553 57.5,296.5 Z"/></g>
<g><path style="opacity:1" fill="#32415e" d="M 471.5,335.5 C 472.743,324.643 468.076,317.976 457.5,315.5C 454.36,317.406 451.027,318.74 447.5,319.5C 456.895,312.033 465.062,313.366 472,323.5C 472.812,327.689 472.645,331.689 471.5,335.5 Z"/></g>
<g><path style="opacity:1" fill="#213761" d="M 471.5,335.5 C 468.945,341.88 464.112,345.213 457,345.5C 445.862,342.916 441.529,335.916 444,324.5C 444.697,322.416 445.864,320.749 447.5,319.5C 451.027,318.74 454.36,317.406 457.5,315.5C 468.076,317.976 472.743,324.643 471.5,335.5 Z"/></g>
<g><path style="opacity:1" fill="#3e4c6b" d="M 167.5,337.5 C 165.167,337.5 162.833,337.5 160.5,337.5C 160.5,342.833 160.5,348.167 160.5,353.5C 159.674,348.684 159.174,343.684 159,338.5C 158.333,341.167 157.667,341.167 157,338.5C 156.829,345.679 156.329,352.679 155.5,359.5C 155.5,352.167 155.5,344.833 155.5,337.5C 153.5,337.5 151.5,337.5 149.5,337.5C 149.167,337.5 148.833,337.5 148.5,337.5C 151.538,333.537 154.705,333.537 158,337.5C 161.269,336.182 164.435,336.182 167.5,337.5 Z"/></g>
<g><path style="opacity:1" fill="#f7fafb" d="M 222.5,337.5 C 227.5,337.5 232.5,337.5 237.5,337.5C 238.694,338.272 239.694,339.272 240.5,340.5C 242.862,345.974 241.195,349.641 235.5,351.5C 233.167,351.5 230.833,351.5 228.5,351.5C 228.5,354.167 228.5,356.833 228.5,359.5C 226.5,359.5 224.5,359.5 222.5,359.5C 222.5,352.167 222.5,344.833 222.5,337.5 Z"/></g>
<g><path style="opacity:1" fill="#f1f4f7" d="M 187.5,337.5 C 193.925,337.13 200.258,337.63 206.5,339C 209.564,343.658 208.564,347.325 203.5,350C 205.808,352.128 207.474,354.628 208.5,357.5C 206.721,359.344 204.388,360.01 201.5,359.5C 200.347,357.193 199.18,354.86 198,352.5C 196.989,351.663 195.822,351.33 194.5,351.5C 194.5,354.167 194.5,356.833 194.5,359.5C 192.167,359.5 189.833,359.5 187.5,359.5C 187.5,352.167 187.5,344.833 187.5,337.5 Z"/></g>
<g><path style="opacity:1" fill="#293a5d" d="M 237.5,337.5 C 232.5,337.5 227.5,337.5 222.5,337.5C 221.508,344.982 221.175,352.648 221.5,360.5C 220.673,355.349 220.173,350.016 220,344.5C 218.06,348.896 217.06,353.563 217,358.5C 216.535,359.931 215.701,361.097 214.5,362C 210.434,362.003 206.434,362.17 202.5,362.5C 200.855,361.964 200.522,361.297 201.5,360.5C 204.833,360.5 208.167,360.5 211.5,360.5C 213.48,359.152 214.647,357.152 215,354.5C 216.695,348.923 217.862,343.256 218.5,337.5C 216.876,337.36 215.71,338.027 215,339.5C 213.516,344.78 212.349,350.113 211.5,355.5C 210.732,356.263 210.232,357.263 210,358.5C 209.617,357.944 209.117,357.611 208.5,357.5C 207.474,354.628 205.808,352.128 203.5,350C 208.564,347.325 209.564,343.658 206.5,339C 200.258,337.63 193.925,337.13 187.5,337.5C 187.5,336.5 187.5,335.5 187.5,334.5C 192.844,334.334 198.177,334.501 203.5,335C 207.616,340.338 211.283,340.338 214.5,335C 221.5,334.333 228.5,334.333 235.5,335C 236.381,335.708 237.047,336.542 237.5,337.5 Z"/></g>
<g><path style="opacity:1" fill="#dde6ed" d="M 211.5,360.5 C 211.5,358.833 211.5,357.167 211.5,355.5C 212.349,350.113 213.516,344.78 215,339.5C 215.71,338.027 216.876,337.36 218.5,337.5C 217.862,343.256 216.695,348.923 215,354.5C 214.647,357.152 213.48,359.152 211.5,360.5 Z"/></g>
<g><path style="opacity:1" fill="#f1f4f6" d="M 245.5,337.5 C 250.5,337.5 255.5,337.5 260.5,337.5C 265.346,338.509 267.18,341.509 266,346.5C 264.786,348.049 263.286,349.215 261.5,350C 263.808,352.128 265.474,354.628 266.5,357.5C 264.721,359.344 262.388,360.01 259.5,359.5C 258.347,357.193 257.18,354.86 256,352.5C 254.989,351.663 253.822,351.33 252.5,351.5C 252.5,354.167 252.5,356.833 252.5,359.5C 250.167,359.5 247.833,359.5 245.5,359.5C 245.5,352.167 245.5,344.833 245.5,337.5 Z"/></g>
<g><path style="opacity:1" fill="#727f96" d="M 245.5,337.5 C 245.5,344.833 245.5,352.167 245.5,359.5C 247.833,359.5 250.167,359.5 252.5,359.5C 249.833,360.833 247.167,360.833 244.5,359.5C 244.175,351.981 244.508,344.648 245.5,337.5 Z"/></g>
<g><path style="opacity:1" fill="#8a92a0" d="M 233.5,342.5 C 232.167,342.5 230.833,342.5 229.5,342.5C 229.5,343.833 229.5,345.167 229.5,346.5C 230.5,346.5 231.5,346.5 232.5,346.5C 231.432,347.434 230.099,347.768 228.5,347.5C 228.5,345.5 228.5,343.5 228.5,341.5C 230.415,341.216 232.081,341.549 233.5,342.5 Z"/></g>
<g><path style="opacity:1" fill="#263247" d="M 233.5,342.5 C 234.954,344.263 234.62,345.597 232.5,346.5C 231.5,346.5 230.5,346.5 229.5,346.5C 229.5,345.167 229.5,343.833 229.5,342.5C 230.833,342.5 232.167,342.5 233.5,342.5 Z"/></g>
<g><path style="opacity:1" fill="#f1f5f7" d="M 282.5,359.5 C 280.5,359.5 278.5,359.5 276.5,359.5C 276.81,356.287 276.477,353.287 275.5,350.5C 272.844,346.529 270.177,342.529 267.5,338.5C 270.167,337.167 272.833,337.167 275.5,338.5C 276.833,340.5 278.167,342.5 279.5,344.5C 280.959,342.417 282.292,340.25 283.5,338C 286.227,337.182 288.894,337.348 291.5,338.5C 288.472,342.361 285.639,346.361 283,350.5C 282.502,353.482 282.335,356.482 282.5,359.5 Z"/></g>
<g><path style="opacity:1" fill="#6c7c95" d="M 186.5,337.5 C 186.833,337.5 187.167,337.5 187.5,337.5C 187.5,344.833 187.5,352.167 187.5,359.5C 189.833,359.5 192.167,359.5 194.5,359.5C 193.378,360.156 192.045,360.489 190.5,360.5C 188.667,360.415 187.334,359.748 186.5,358.5C 186.5,351.5 186.5,344.5 186.5,337.5 Z"/></g>
<g><path style="opacity:1" fill="#293447" d="M 194.5,342.5 C 196.5,342.5 198.5,342.5 200.5,342.5C 200.241,346.068 198.241,347.401 194.5,346.5C 194.5,345.167 194.5,343.833 194.5,342.5 Z"/></g>
<g><path style="opacity:1" fill="#2b3550" d="M 252.5,342.5 C 254.5,342.5 256.5,342.5 258.5,342.5C 258.241,346.068 256.241,347.401 252.5,346.5C 252.5,345.167 252.5,343.833 252.5,342.5 Z"/></g>
<g><path style="opacity:1" fill="#24395e" d="M 395.5,353.5 C 387.583,365.419 377.916,375.752 366.5,384.5C 366.5,382.833 366.5,381.167 366.5,379.5C 368.827,379.753 370.827,379.086 372.5,377.5C 375.97,373.846 379.47,370.179 383,366.5C 382.575,364.945 381.742,363.445 380.5,362C 381.009,360.831 381.842,359.998 383,359.5C 384.577,362.675 386.41,363.009 388.5,360.5C 386.413,358.081 384.413,355.581 382.5,353C 383.693,350.189 382.693,349.189 379.5,350C 379.485,355.753 377.818,360.92 374.5,365.5C 375.681,367.198 375.681,368.865 374.5,370.5C 372.291,371.92 370.291,373.587 368.5,375.5C 367.571,374.311 367.238,372.978 367.5,371.5C 368.5,371.5 369.5,371.5 370.5,371.5C 370.318,369.409 370.652,367.409 371.5,365.5C 370.05,364.15 369.383,362.484 369.5,360.5C 371.833,360.5 374.167,360.5 376.5,360.5C 376.825,352.648 376.492,344.982 375.5,337.5C 373.5,337.5 371.5,337.5 369.5,337.5C 370.953,336.175 370.619,335.342 368.5,335C 376.801,332.774 380.635,335.941 380,344.5C 381.399,345.227 382.899,345.727 384.5,346C 385.061,347.676 386.061,349.009 387.5,350C 385.963,351.11 385.297,352.61 385.5,354.5C 387.451,354.227 388.951,354.893 390,356.5C 391.741,355.242 393.574,354.242 395.5,353.5 Z"/></g>
<g><path style="opacity:1" fill="#b6c0ce" d="M 222.5,337.5 C 222.5,344.833 222.5,352.167 222.5,359.5C 224.5,359.5 226.5,359.5 228.5,359.5C 226.393,360.468 224.059,360.802 221.5,360.5C 221.175,352.648 221.508,344.982 222.5,337.5 Z"/></g>
<g><path style="opacity:1" fill="#243657" d="M 260.5,337.5 C 255.5,337.5 250.5,337.5 245.5,337.5C 244.508,344.648 244.175,351.981 244.5,359.5C 243.883,359.389 243.383,359.056 243,358.5C 242.505,356.527 242.338,354.527 242.5,352.5C 238.951,352.439 235.618,353.273 232.5,355C 231.544,357.877 230.211,360.544 228.5,363C 226.19,363.497 223.857,363.663 221.5,363.5C 221.5,362.5 221.5,361.5 221.5,360.5C 224.059,360.802 226.393,360.468 228.5,359.5C 229.468,357.393 229.802,355.059 229.5,352.5C 231.735,352.795 233.735,352.461 235.5,351.5C 241.195,349.641 242.862,345.974 240.5,340.5C 241.5,340.5 242.5,340.5 243.5,340.5C 243.5,338.833 243.5,337.167 243.5,335.5C 249.329,335.968 254.996,336.635 260.5,337.5 Z"/></g>
<g><path style="opacity:1" fill="#eff2f5" d="M 345.5,337.5 C 347.705,339.363 349.039,341.697 349.5,344.5C 346.332,345.985 343.666,345.485 341.5,343C 337.044,342.05 334.711,343.883 334.5,348.5C 334.544,353.384 336.878,355.551 341.5,355C 343.691,350.785 346.357,350.452 349.5,354C 348.847,357.32 346.847,359.32 343.5,360C 340.518,360.498 337.518,360.665 334.5,360.5C 328.116,356.659 325.782,350.992 327.5,343.5C 328.977,341.193 330.977,339.36 333.5,338C 337.486,337.501 341.486,337.334 345.5,337.5 Z"/></g>
<g><path style="opacity:1" fill="#919cad" d="M 354.5,337.5 C 354.5,344.833 354.5,352.167 354.5,359.5C 356.5,359.5 358.5,359.5 360.5,359.5C 360.5,356.5 360.5,353.5 360.5,350.5C 363.5,350.5 366.5,350.5 369.5,350.5C 369.5,353.5 369.5,356.5 369.5,359.5C 371.5,359.5 373.5,359.5 375.5,359.5C 375.5,352.167 375.5,344.833 375.5,337.5C 376.492,344.982 376.825,352.648 376.5,360.5C 374.167,360.5 371.833,360.5 369.5,360.5C 368.523,357.713 368.19,354.713 368.5,351.5C 366.167,351.5 363.833,351.5 361.5,351.5C 361.5,354.5 361.5,357.5 361.5,360.5C 358.615,360.806 355.948,360.473 353.5,359.5C 353.175,351.981 353.508,344.648 354.5,337.5 Z"/></g>
<g><path style="opacity:1" fill="#f6f8f9" d="M 354.5,337.5 C 356.833,337.5 359.167,337.5 361.5,337.5C 361.5,340.167 361.5,342.833 361.5,345.5C 363.833,345.5 366.167,345.5 368.5,345.5C 368.194,342.615 368.527,339.948 369.5,337.5C 371.5,337.5 373.5,337.5 375.5,337.5C 375.5,344.833 375.5,352.167 375.5,359.5C 373.5,359.5 371.5,359.5 369.5,359.5C 369.5,356.5 369.5,353.5 369.5,350.5C 366.5,350.5 363.5,350.5 360.5,350.5C 360.5,353.5 360.5,356.5 360.5,359.5C 358.5,359.5 356.5,359.5 354.5,359.5C 354.5,352.167 354.5,344.833 354.5,337.5 Z"/></g>
<g><path style="opacity:1" fill="#6e798c" d="M 235.5,351.5 C 233.735,352.461 231.735,352.795 229.5,352.5C 229.802,355.059 229.468,357.393 228.5,359.5C 228.5,356.833 228.5,354.167 228.5,351.5C 230.833,351.5 233.167,351.5 235.5,351.5 Z"/></g>
<g><path style="opacity:1" fill="#f0f3f6" d="M 323.5,341.5 C 323.03,342.693 322.03,343.36 320.5,343.5C 317.725,342.077 314.725,341.411 311.5,341.5C 311.5,342.5 311.5,343.5 311.5,344.5C 316.297,344.707 320.463,346.374 324,349.5C 325.892,355.042 324.059,358.542 318.5,360C 314.269,360.919 310.269,360.419 306.5,358.5C 304.919,356.858 304.253,354.858 304.5,352.5C 306.833,352.5 309.167,352.5 311.5,352.5C 311.5,353.5 311.5,354.5 311.5,355.5C 313.5,355.5 315.5,355.5 317.5,355.5C 317.67,354.178 317.337,353.011 316.5,352C 313.432,350.984 310.432,349.817 307.5,348.5C 302.843,341.162 305.01,337.496 314,337.5C 318.119,336.815 321.286,338.148 323.5,341.5 Z"/></g>
<g><path style="opacity:1" fill="#a3afbf" d="M 275.5,350.5 C 276.477,353.287 276.81,356.287 276.5,359.5C 278.5,359.5 280.5,359.5 282.5,359.5C 280.393,360.468 278.059,360.802 275.5,360.5C 275.5,357.167 275.5,353.833 275.5,350.5 Z"/></g>
<g><path style="opacity:1" fill="#26385a" d="M 361.5,337.5 C 359.167,337.5 356.833,337.5 354.5,337.5C 353.508,344.648 353.175,351.981 353.5,359.5C 352.735,359.077 351.902,358.743 351,358.5C 345.627,362.717 340.127,363.384 334.5,360.5C 337.518,360.665 340.518,360.498 343.5,360C 346.847,359.32 348.847,357.32 349.5,354C 346.357,350.452 343.691,350.785 341.5,355C 336.878,355.551 334.544,353.384 334.5,348.5C 334.711,343.883 337.044,342.05 341.5,343C 343.666,345.485 346.332,345.985 349.5,344.5C 349.039,341.697 347.705,339.363 345.5,337.5C 348.655,336.437 350.488,337.771 351,341.5C 352.194,339.377 352.86,337.043 353,334.5C 356.254,334.838 359.088,335.838 361.5,337.5 Z"/></g>
<g><path style="opacity:1" fill="#97a0b4" d="M 211.5,355.5 C 211.5,357.167 211.5,358.833 211.5,360.5C 208.167,360.5 204.833,360.5 201.5,360.5C 201.5,360.167 201.5,359.833 201.5,359.5C 204.388,360.01 206.721,359.344 208.5,357.5C 209.117,357.611 209.617,357.944 210,358.5C 210.232,357.263 210.732,356.263 211.5,355.5 Z"/></g>
<g><path style="opacity:1" fill="#909cb1" d="M 266.5,357.5 C 267.404,358.209 267.737,359.209 267.5,360.5C 264.615,360.806 261.948,360.473 259.5,359.5C 262.388,360.01 264.721,359.344 266.5,357.5 Z"/></g>
<g><path style="opacity:1" fill="#2c3b59" d="M 323.5,341.5 C 324.268,342.263 324.768,343.263 325,344.5C 325.671,343.748 326.504,343.414 327.5,343.5C 325.782,350.992 328.116,356.659 334.5,360.5C 331.112,360.812 328.612,359.479 327,356.5C 321.79,362.429 315.29,364.095 307.5,361.5C 306.873,360.583 306.539,359.583 306.5,358.5C 310.269,360.419 314.269,360.919 318.5,360C 324.059,358.542 325.892,355.042 324,349.5C 320.463,346.374 316.297,344.707 311.5,344.5C 311.5,343.5 311.5,342.5 311.5,341.5C 314.725,341.411 317.725,342.077 320.5,343.5C 322.03,343.36 323.03,342.693 323.5,341.5 Z"/></g>
<g><path style="opacity:1" fill="#243759" d="M 175.5,337.5 C 179.033,336.285 182.699,336.285 186.5,337.5C 186.5,344.5 186.5,351.5 186.5,358.5C 181.604,360.108 176.604,361.441 171.5,362.5C 162.484,362.757 157.984,358.424 158,349.5C 157.788,354.258 157.622,358.925 157.5,363.5C 156.914,363.709 156.414,364.043 156,364.5C 154.281,362.684 152.115,361.684 149.5,361.5C 146.449,363.438 143.449,365.438 140.5,367.5C 139.738,366.372 139.071,365.205 138.5,364C 136.112,363.697 133.945,362.863 132,361.5C 131.833,357.5 131.667,353.5 131.5,349.5C 131.509,345.107 132.176,341.107 133.5,337.5C 133.5,344.833 133.5,352.167 133.5,359.5C 135.607,360.468 137.941,360.802 140.5,360.5C 140.185,356.629 140.518,352.962 141.5,349.5C 143.808,352.815 146.141,356.149 148.5,359.5C 150.973,360.797 153.307,360.797 155.5,359.5C 156.329,352.679 156.829,345.679 157,338.5C 157.667,341.167 158.333,341.167 159,338.5C 159.174,343.684 159.674,348.684 160.5,353.5C 161.543,356.056 163.21,358.223 165.5,360C 169.956,360.867 174.289,360.534 178.5,359C 180.049,357.786 181.215,356.286 182,354.5C 182.499,348.843 182.666,343.176 182.5,337.5C 180.167,337.5 177.833,337.5 175.5,337.5 Z"/></g>
<g><path style="opacity:1" fill="#9ba3b2" d="M 141.5,349.5 C 140.518,352.962 140.185,356.629 140.5,360.5C 137.941,360.802 135.607,360.468 133.5,359.5C 135.5,359.5 137.5,359.5 139.5,359.5C 139.177,355.774 139.511,352.107 140.5,348.5C 141.107,348.624 141.44,348.957 141.5,349.5 Z"/></g>
<g><path style="opacity:1" fill="#f1f5f7" d="M 167.5,337.5 C 167.334,342.844 167.501,348.177 168,353.5C 170.333,356.167 172.667,356.167 175,353.5C 175.499,348.177 175.666,342.844 175.5,337.5C 177.833,337.5 180.167,337.5 182.5,337.5C 182.666,343.176 182.499,348.843 182,354.5C 181.215,356.286 180.049,357.786 178.5,359C 174.289,360.534 169.956,360.867 165.5,360C 163.21,358.223 161.543,356.056 160.5,353.5C 160.5,348.167 160.5,342.833 160.5,337.5C 162.833,337.5 165.167,337.5 167.5,337.5 Z"/></g>
<g><path style="opacity:1" fill="#f4f7f8" d="M 133.5,337.5 C 135.857,337.337 138.19,337.503 140.5,338C 143.216,341.271 145.549,344.771 147.5,348.5C 147.56,349.043 147.893,349.376 148.5,349.5C 149.491,345.555 149.824,341.555 149.5,337.5C 151.5,337.5 153.5,337.5 155.5,337.5C 155.5,344.833 155.5,352.167 155.5,359.5C 153.307,360.797 150.973,360.797 148.5,359.5C 146.141,356.149 143.808,352.815 141.5,349.5C 141.44,348.957 141.107,348.624 140.5,348.5C 139.511,352.107 139.177,355.774 139.5,359.5C 137.5,359.5 135.5,359.5 133.5,359.5C 133.5,352.167 133.5,344.833 133.5,337.5 Z"/></g>
<g><path style="opacity:1" fill="#a4acbe" d="M 148.5,337.5 C 148.833,337.5 149.167,337.5 149.5,337.5C 149.824,341.555 149.491,345.555 148.5,349.5C 147.893,349.376 147.56,349.043 147.5,348.5C 148.482,345.038 148.815,341.371 148.5,337.5 Z"/></g>
<g><path style="opacity:1" fill="#546477" d="M 113.5,384.5 C 114.924,386.515 115.59,388.848 115.5,391.5C 114.076,389.485 113.41,387.152 113.5,384.5 Z"/></g>
<g><path style="opacity:1" fill="#0f2b47" d="M 113.5,384.5 C 113.41,387.152 114.076,389.485 115.5,391.5C 115.414,392.496 115.748,393.329 116.5,394C 121.41,396.075 124.743,399.575 126.5,404.5C 125.761,404.631 125.094,404.464 124.5,404C 122.954,401.743 121.288,399.576 119.5,397.5C 116.894,396.348 114.227,396.182 111.5,397C 112.458,398.147 112.125,399.147 110.5,400C 112.285,401.163 114.285,401.83 116.5,402C 117.823,402.816 118.489,403.983 118.5,405.5C 116.441,402.851 113.775,402.018 110.5,403C 108.667,404.833 106.833,406.667 105,408.5C 103.974,413.976 106.141,416.143 111.5,415C 112.984,414.338 114.317,413.504 115.5,412.5C 116.46,415.465 115.46,417.965 112.5,420C 116.033,422.45 118.7,421.784 120.5,418C 122.676,417.837 124.509,417.004 126,415.5C 126.167,415.833 126.333,416.167 126.5,416.5C 125.252,419.07 124.252,421.737 123.5,424.5C 122.583,425.127 121.583,425.461 120.5,425.5C 121.684,423.537 122.517,421.537 123,419.5C 113.234,428.23 104.567,427.23 97,416.5C 93.8408,408.812 95.3408,402.312 101.5,397C 100.207,396.51 98.8734,396.343 97.5,396.5C 96.8333,393.5 96.1667,390.5 95.5,387.5C 91.1235,387.909 86.7902,388.575 82.5,389.5C 82.6611,386.472 81.9944,383.639 80.5,381C 80.8333,380.5 81.1667,380 81.5,379.5C 90.2926,377.412 98.9593,375.079 107.5,372.5C 108.5,372.833 109.5,373.167 110.5,373.5C 111.708,377.122 112.708,380.789 113.5,384.5 Z"/></g>
<g><path style="opacity:1" fill="#deeaf1" d="M 102.5,384.5 C 103.5,384.5 104.5,384.5 105.5,384.5C 105.866,386.905 106.533,389.238 107.5,391.5C 107.547,393 106.881,394 105.5,394.5C 103.909,391.325 102.909,387.991 102.5,384.5 Z"/></g>
<g><path style="opacity:1" fill="#0d2b4a" d="M 414.5,397.5 C 412.208,402.084 409.875,406.75 407.5,411.5C 402.167,409.167 396.833,406.833 391.5,404.5C 390.534,406.396 390.201,408.396 390.5,410.5C 395.703,411.009 400.37,412.676 404.5,415.5C 401.803,418.193 398.803,420.527 395.5,422.5C 393.269,422.147 391.269,421.314 389.5,420C 387.5,419.333 385.5,419.333 383.5,420C 386.219,422.382 388.553,425.049 390.5,428C 388.304,430.53 385.804,432.697 383,434.5C 381.826,433.456 380.659,432.456 379.5,431.5C 376.538,428.036 373.371,424.703 370,421.5C 371.396,425.331 372.563,429.331 373.5,433.5C 373.263,437.302 371.93,440.635 369.5,443.5C 366.07,444.714 362.736,446.214 359.5,448C 355.588,448.931 352.088,448.097 349,445.5C 346.123,441.582 343.623,437.415 341.5,433C 339.098,434.046 336.432,434.546 333.5,434.5C 335.596,440.956 337.596,447.456 339.5,454C 339.355,454.772 339.022,455.439 338.5,456C 336,456.833 333.5,457.667 331,458.5C 330.228,458.355 329.561,458.022 329,457.5C 327.867,451.6 326.033,445.933 323.5,440.5C 320.527,439.491 317.527,439.491 314.5,440.5C 320.298,458.863 313.632,467.363 294.5,466C 292.91,464.954 291.41,463.787 290,462.5C 287.724,457.729 286.224,452.729 285.5,447.5C 285.477,445.073 284.977,442.74 284,440.5C 283.506,442.134 283.34,443.801 283.5,445.5C 279.702,446.483 275.702,446.817 271.5,446.5C 270.566,447.568 270.232,448.901 270.5,450.5C 272.415,450.784 274.081,450.451 275.5,449.5C 277.833,449.5 280.167,449.5 282.5,449.5C 282.5,452.167 282.5,454.833 282.5,457.5C 279.167,457.5 275.833,457.5 272.5,457.5C 272.5,461.5 272.5,465.5 272.5,469.5C 268.833,469.5 265.167,469.5 261.5,469.5C 261.19,459.472 260.523,449.472 259.5,439.5C 271.271,439.4 282.937,438.4 294.5,436.5C 295.504,442.852 296.671,449.185 298,455.5C 300.293,458.134 302.46,458.134 304.5,455.5C 305.742,451.088 305.409,446.754 303.5,442.5C 302.908,439.873 302.575,437.206 302.5,434.5C 306.789,433.512 311.122,432.679 315.5,432C 326,428.946 336.167,425.113 346,420.5C 350.078,425.644 353.411,431.311 356,437.5C 361.175,439.65 363.508,437.983 363,432.5C 360.032,427.398 357.199,422.231 354.5,417C 357.473,414.509 360.806,412.509 364.5,411C 369.131,406.357 374.131,402.19 379.5,398.5C 383.102,391.63 386.435,384.63 389.5,377.5C 390,377.167 390.5,376.833 391,376.5C 393.047,377.609 395.213,378.276 397.5,378.5C 395.536,383.104 393.536,387.771 391.5,392.5C 392.5,393.833 393.5,393.833 394.5,392.5C 396.406,389.36 397.74,386.027 398.5,382.5C 401.686,382.337 404.353,383.337 406.5,385.5C 404.697,388.939 403.03,392.439 401.5,396C 402.032,398.02 403.365,398.853 405.5,398.5C 406.741,394.181 408.408,390.015 410.5,386C 413.174,386.153 415.84,386.653 418.5,387.5C 417.191,390.793 415.858,394.126 414.5,397.5 Z"/></g>
<g><path style="opacity:1" fill="#092949" d="M 126.5,404.5 C 127.317,406.969 127.817,409.635 128,412.5C 128.899,410.673 130.233,409.34 132,408.5C 138.15,411.909 144.15,415.576 150,419.5C 153.376,427.295 150.876,431.961 142.5,433.5C 142.138,438.421 141.138,443.087 139.5,447.5C 136.658,446.828 134.158,445.494 132,443.5C 131.828,439.129 131.328,434.796 130.5,430.5C 128.15,433.017 125.983,435.684 124,438.5C 120.771,437.47 117.938,435.804 115.5,433.5C 117.192,430.769 118.858,428.102 120.5,425.5C 121.583,425.461 122.583,425.127 123.5,424.5C 124.252,421.737 125.252,419.07 126.5,416.5C 126.333,416.167 126.167,415.833 126,415.5C 124.509,417.004 122.676,417.837 120.5,418C 118.7,421.784 116.033,422.45 112.5,420C 115.46,417.965 116.46,415.465 115.5,412.5C 117.85,410.787 118.85,408.453 118.5,405.5C 118.489,403.983 117.823,402.816 116.5,402C 114.285,401.83 112.285,401.163 110.5,400C 112.125,399.147 112.458,398.147 111.5,397C 114.227,396.182 116.894,396.348 119.5,397.5C 121.288,399.576 122.954,401.743 124.5,404C 125.094,404.464 125.761,404.631 126.5,404.5 Z"/></g>
<g><path style="opacity:1" fill="#dae4e9" d="M 414.5,397.5 C 414.146,399.541 414.146,401.374 414.5,403C 413.884,405.179 412.717,407.012 411,408.5C 411.988,410.92 411.655,413.253 410,415.5C 409.517,414.552 409.351,413.552 409.5,412.5C 408.167,412.5 406.833,412.5 405.5,412.5C 405.737,413.791 405.404,414.791 404.5,415.5C 400.37,412.676 395.703,411.009 390.5,410.5C 390.201,408.396 390.534,406.396 391.5,404.5C 396.833,406.833 402.167,409.167 407.5,411.5C 409.875,406.75 412.208,402.084 414.5,397.5 Z"/></g>
<g><path style="opacity:1" fill="#e9f0f3" d="M 118.5,405.5 C 118.85,408.453 117.85,410.787 115.5,412.5C 114.317,413.504 112.984,414.338 111.5,415C 106.141,416.143 103.974,413.976 105,408.5C 106.833,406.667 108.667,404.833 110.5,403C 113.775,402.018 116.441,402.851 118.5,405.5 Z"/></g>
<g><path style="opacity:1" fill="#d3e2eb" d="M 377.5,408.5 C 378.833,408.5 380.167,408.5 381.5,408.5C 381.431,411.084 380.265,413.084 378,414.5C 374.898,412.663 374.731,410.663 377.5,408.5 Z"/></g>
<g><path style="opacity:1" fill="#354565" d="M 293.5,419.5 C 262.658,426.85 231.992,425.684 201.5,416C 194.407,413.947 187.74,411.114 181.5,407.5C 183.527,407.662 185.527,407.495 187.5,407C 190.538,403.815 191.871,404.648 191.5,409.5C 197.603,409.716 202.936,411.883 207.5,416C 212.617,415.952 217.283,417.286 221.5,420C 227.61,420.088 233.61,420.755 239.5,422C 257.555,422.196 275.555,421.362 293.5,419.5 Z"/></g>
<g><path style="opacity:1" fill="#e0ecf1" d="M 135.5,420.5 C 139.172,420.183 140.838,421.849 140.5,425.5C 136.358,425.687 134.691,424.021 135.5,420.5 Z"/></g>
<g><path style="opacity:1" fill="#d8e4e9" d="M 379.5,431.5 C 376.306,431.176 375.306,432.342 376.5,435C 375.192,437.355 374.192,439.855 373.5,442.5C 372.264,443.246 370.93,443.579 369.5,443.5C 371.93,440.635 373.263,437.302 373.5,433.5C 372.563,429.331 371.396,425.331 370,421.5C 373.371,424.703 376.538,428.036 379.5,431.5 Z"/></g>
<g><path style="opacity:1" fill="#0d2a49" d="M 167.5,426.5 C 168.348,428.093 169.681,429.26 171.5,430C 174.55,430.679 177.55,431.512 180.5,432.5C 181.452,434.045 181.785,435.712 181.5,437.5C 178.221,438.031 176.887,440.031 177.5,443.5C 177.5,444.833 177.5,446.167 177.5,447.5C 175.653,451.225 174.319,455.225 173.5,459.5C 170.017,459.309 166.684,458.643 163.5,457.5C 165.185,450.094 167.185,442.761 169.5,435.5C 166.833,435.167 164.167,434.833 161.5,434.5C 161.508,431.455 161.841,428.455 162.5,425.5C 164.216,425.629 165.883,425.962 167.5,426.5 Z"/></g>
<g><path style="opacity:1" fill="#162f47" d="M 167.5,426.5 C 178.393,430.082 189.393,433.415 200.5,436.5C 199.593,439.421 199.26,442.421 199.5,445.5C 206.259,447.075 209.259,444.408 208.5,437.5C 211.902,437.342 215.236,437.676 218.5,438.5C 218.5,439.5 218.5,440.5 218.5,441.5C 217.678,446.295 216.678,450.962 215.5,455.5C 215.5,450.167 215.5,444.833 215.5,439.5C 213.833,439.5 212.167,439.5 210.5,439.5C 210.5,441.5 210.5,443.5 210.5,445.5C 207.187,446.045 203.854,446.545 200.5,447C 199.594,448.699 199.261,450.533 199.5,452.5C 201.722,452.822 203.556,452.155 205,450.5C 205.273,452.101 205.773,453.601 206.5,455C 205.725,458.791 205.059,462.624 204.5,466.5C 203.774,462.679 203.774,458.679 204.5,454.5C 202.143,454.337 199.81,454.503 197.5,455C 196.891,456.948 196.224,458.782 195.5,460.5C 195.749,456.38 195.749,452.38 195.5,448.5C 198.039,445.851 198.039,443.184 195.5,440.5C 196.246,439.264 196.579,437.93 196.5,436.5C 193.303,436.027 190.137,435.361 187,434.5C 185.286,435.076 184.119,436.243 183.5,438C 185.351,438.837 187.184,439.671 189,440.5C 189.321,448.219 188.821,455.885 187.5,463.5C 190.167,463.5 192.833,463.5 195.5,463.5C 192.435,464.818 189.269,464.818 186,463.5C 185.85,456.062 186.684,448.728 188.5,441.5C 187.5,441.5 186.5,441.5 185.5,441.5C 181.712,438.227 179.045,438.893 177.5,443.5C 176.887,440.031 178.221,438.031 181.5,437.5C 181.785,435.712 181.452,434.045 180.5,432.5C 177.55,431.512 174.55,430.679 171.5,430C 169.681,429.26 168.348,428.093 167.5,426.5 Z"/></g>
<g><path style="opacity:1" fill="#75889b" d="M 218.5,438.5 C 222.371,438.185 226.038,438.518 229.5,439.5C 226.5,439.5 223.5,439.5 220.5,439.5C 220.806,442.385 220.473,445.052 219.5,447.5C 219.795,445.265 219.461,443.265 218.5,441.5C 218.5,440.5 218.5,439.5 218.5,438.5 Z"/></g>
<g><path style="opacity:1" fill="#b1c2cf" d="M 185.5,441.5 C 183.5,441.5 181.5,441.5 179.5,441.5C 179.405,443.786 178.738,445.786 177.5,447.5C 177.5,446.167 177.5,444.833 177.5,443.5C 179.045,438.893 181.712,438.227 185.5,441.5 Z"/></g>
<g><path style="opacity:1" fill="#052849" d="M 215.5,455.5 C 215.11,458.839 214.61,462.173 214,465.5C 213.29,466.973 212.124,467.64 210.5,467.5C 208.435,467.483 206.435,467.15 204.5,466.5C 205.059,462.624 205.725,458.791 206.5,455C 205.773,453.601 205.273,452.101 205,450.5C 203.556,452.155 201.722,452.822 199.5,452.5C 199.261,450.533 199.594,448.699 200.5,447C 203.854,446.545 207.187,446.045 210.5,445.5C 210.5,443.5 210.5,441.5 210.5,439.5C 212.167,439.5 213.833,439.5 215.5,439.5C 215.5,444.833 215.5,450.167 215.5,455.5 Z"/></g>
<g><path style="opacity:1" fill="#4c5d6c" d="M 142.5,433.5 C 142.5,438.5 142.5,443.5 142.5,448.5C 141.209,448.737 140.209,448.404 139.5,447.5C 141.138,443.087 142.138,438.421 142.5,433.5 Z"/></g>
<g><path style="opacity:1" fill="#7b98b3" d="M 285.5,447.5 C 284.833,446.833 284.167,446.167 283.5,445.5C 283.34,443.801 283.506,442.134 284,440.5C 284.977,442.74 285.477,445.073 285.5,447.5 Z"/></g>
<g><path style="opacity:1" fill="#c8d7e1" d="M 245.5,447.5 C 242.023,448.323 238.356,448.823 234.5,449C 237.695,449.181 240.695,449.681 243.5,450.5C 239.167,450.5 234.833,450.5 230.5,450.5C 230.5,449.5 230.5,448.5 230.5,447.5C 235.5,447.5 240.5,447.5 245.5,447.5 Z"/></g>
<g><path style="opacity:1" fill="#758aa1" d="M 271.5,446.5 C 271.5,447.5 271.5,448.5 271.5,449.5C 272.833,449.5 274.167,449.5 275.5,449.5C 274.081,450.451 272.415,450.784 270.5,450.5C 270.232,448.901 270.566,447.568 271.5,446.5 Z"/></g>
<g><path style="opacity:1" fill="#cdd8e1" d="M 218.5,441.5 C 219.461,443.265 219.795,445.265 219.5,447.5C 219.001,454.49 218.668,461.49 218.5,468.5C 217.683,466.031 217.183,463.365 217,460.5C 215.806,462.623 215.14,464.957 215,467.5C 213.384,468.801 211.884,468.801 210.5,467.5C 212.124,467.64 213.29,466.973 214,465.5C 214.61,462.173 215.11,458.839 215.5,455.5C 216.678,450.962 217.678,446.295 218.5,441.5 Z"/></g>
<g><path style="opacity:1" fill="#112c4a" d="M 229.5,439.5 C 234.833,439.5 240.167,439.5 245.5,439.5C 245.5,442.167 245.5,444.833 245.5,447.5C 240.5,447.5 235.5,447.5 230.5,447.5C 230.5,448.5 230.5,449.5 230.5,450.5C 234.833,450.5 239.167,450.5 243.5,450.5C 244.468,452.607 244.802,454.941 244.5,457.5C 239.5,457.5 234.5,457.5 229.5,457.5C 229.5,458.833 229.5,460.167 229.5,461.5C 234.5,461.5 239.5,461.5 244.5,461.5C 244.5,464.167 244.5,466.833 244.5,469.5C 235.651,469.826 226.984,469.493 218.5,468.5C 218.668,461.49 219.001,454.49 219.5,447.5C 220.473,445.052 220.806,442.385 220.5,439.5C 223.5,439.5 226.5,439.5 229.5,439.5 Z"/></g>
<g><path style="opacity:1" fill="#bac8d4" d="M 303.5,442.5 C 305.409,446.754 305.742,451.088 304.5,455.5C 303.92,451.19 303.586,446.857 303.5,442.5 Z"/></g>
<g><path style="opacity:1" fill="#05284a" d="M 195.5,460.5 C 195.5,461.5 195.5,462.5 195.5,463.5C 192.833,463.5 190.167,463.5 187.5,463.5C 188.821,455.885 189.321,448.219 189,440.5C 187.184,439.671 185.351,438.837 183.5,438C 184.119,436.243 185.286,435.076 187,434.5C 190.137,435.361 193.303,436.027 196.5,436.5C 196.579,437.93 196.246,439.264 195.5,440.5C 198.039,443.184 198.039,445.851 195.5,448.5C 195.749,452.38 195.749,456.38 195.5,460.5 Z"/></g>
<g><path style="opacity:1" fill="#9eadbe" d="M 210.5,484.5 C 215.731,484.444 220.731,485.111 225.5,486.5C 220.269,486.556 215.269,485.889 210.5,484.5 Z"/></g>
</svg>
